<svg width="724" height="106" viewBox="0 0 724 106" fill="none" xmlns="http://www.w3.org/2000/svg">
<g filter="url(#filter0_b_87_64)">
<path d="M63.0938 31.4277C61.362 23.0879 58.1719 16.6165 53.5234 12.0137C48.9206 7.41081 43.3835 5.10938 36.9121 5.10938C30.5775 5.10938 25.6556 6.61328 22.1465 9.62109C18.6829 12.6289 16.9512 16.6393 16.9512 21.6523C16.9512 24.4323 17.2018 26.7337 17.7031 28.5566C18.2044 30.3796 19.2298 32.1569 20.7793 33.8887C22.3288 35.5749 24.5846 37.0788 27.5469 38.4004C30.5091 39.6764 34.3828 40.9069 39.168 42.0918C41.7656 42.7298 44.0215 43.3223 45.9355 43.8691C47.8952 44.416 50.0371 45.168 52.3613 46.125C54.7311 47.082 56.7591 48.1074 58.4453 49.2012C60.1771 50.2949 61.8861 51.6621 63.5723 53.3027C65.304 54.8978 66.694 56.6751 67.7422 58.6348C68.8359 60.5944 69.7018 62.9186 70.3398 65.6074C71.0234 68.2507 71.3652 71.1445 71.3652 74.2891C71.3652 78.4818 70.5905 82.3555 69.041 85.9102C67.4915 89.4193 65.4635 92.3815 62.957 94.7969C60.4505 97.2122 57.5566 99.263 54.2754 100.949C50.9941 102.635 47.6673 103.866 44.2949 104.641C40.9225 105.415 37.5729 105.803 34.2461 105.803C24.1289 105.803 13.3509 103.182 1.91211 97.9414C2.13997 93.0195 2.25391 89.9889 2.25391 88.8496C2.25391 81.4212 1.63867 74.0156 0.408203 66.6328C0.909505 66.3138 1.41081 66.1543 1.91211 66.1543C2.55013 66.1543 3.11979 66.3138 3.62109 66.6328C4.57812 72.5117 6.15039 77.707 8.33789 82.2188C10.571 86.7305 13.123 90.3079 15.9941 92.9512C18.8652 95.5488 21.8275 97.5085 24.8809 98.8301C27.9798 100.106 31.1016 100.744 34.2461 100.744C41.401 100.744 46.8926 98.8984 50.7207 95.207C54.5944 91.4701 56.5312 86.5482 56.5312 80.4414C56.5312 74.2891 55.0957 69.6634 52.2246 66.5645C49.3991 63.4199 43.9759 60.8678 35.9551 58.9082C25.929 56.4017 18.0905 52.7103 12.4395 47.834C6.83398 42.9121 4.03125 36.418 4.03125 28.3516C4.03125 24.1133 4.71484 20.3307 6.08203 17.0039C7.49479 13.6315 9.29492 10.9427 11.4824 8.9375C13.7155 6.88672 16.3132 5.20052 19.2754 3.87891C22.2376 2.51172 25.1543 1.57747 28.0254 1.07617C30.9421 0.529297 33.9043 0.255859 36.9121 0.255859C45.9355 0.255859 55.3236 2.35221 65.0762 6.54492C64.8027 9.23372 64.666 12.0365 64.666 14.9531C64.666 21.7891 65.2129 27.2806 66.3066 31.4277C65.7142 31.6556 65.2129 31.7695 64.8027 31.7695C64.347 31.7695 63.7773 31.6556 63.0938 31.4277ZM133.846 1.48633C134.529 0.985026 135.258 0.666016 136.033 0.529297L173.426 93.9082C173.882 95.0475 174.633 96.0273 175.682 96.8477C176.73 97.6224 178.029 98.2376 179.578 98.6934C181.173 99.1035 182.54 99.4225 183.68 99.6504C184.865 99.8327 186.3 100.015 187.986 100.197C188.169 100.926 188.26 101.542 188.26 102.043C188.26 102.59 188.169 103.091 187.986 103.547C178.143 103.182 170.783 103 165.906 103C160.62 103 152.964 103.182 142.938 103.547C142.755 103 142.664 102.453 142.664 101.906C142.664 101.314 142.755 100.744 142.938 100.197C152.143 99.1947 156.746 97.4629 156.746 95.002C156.746 94.2272 156.655 93.4297 156.473 92.6094L146.561 67.1797C143.553 67.0885 139.497 67.043 134.393 67.043C131.977 67.043 125.711 67.1341 115.594 67.3164L105.135 93.9082V94.7285C105.135 95.1842 105.203 95.6172 105.34 96.0273C105.522 96.4375 105.796 96.8021 106.16 97.1211C106.57 97.4401 106.958 97.7135 107.322 97.9414C107.687 98.1693 108.188 98.3971 108.826 98.625C109.51 98.8073 110.079 98.9668 110.535 99.1035C111.036 99.1947 111.697 99.3086 112.518 99.4453C113.383 99.582 114.044 99.696 114.5 99.7871C114.956 99.8327 115.617 99.901 116.482 99.9922C117.394 100.083 118.032 100.152 118.396 100.197C118.579 100.926 118.67 101.542 118.67 102.043C118.67 102.316 118.579 102.818 118.396 103.547C108.188 103.182 102.446 103 101.17 103C98.709 103 92.3743 103.182 82.166 103.547C81.9837 103 81.8926 102.453 81.8926 101.906C81.8926 101.314 81.9837 100.744 82.166 100.197C91.6452 99.1035 97.0456 96.7793 98.3672 93.2246L127.762 19.123L126.258 15.0898C128.855 13.3581 130.656 11.4896 131.658 9.48438C132.706 7.47917 133.436 4.81315 133.846 1.48633ZM134.393 61.7109C138.585 61.7109 141.889 61.6654 144.305 61.5742L131.316 27.9414H131.043L117.986 61.4375C122.27 61.6198 127.739 61.7109 134.393 61.7109ZM197.762 2.51172C206.329 2.8763 217.107 3.05859 230.096 3.05859L256.551 74.6992H256.893L284.441 3.05859H292.303C297.954 3.05859 305.929 2.8763 316.229 2.51172C316.411 3.24089 316.502 3.74219 316.502 4.01562C316.502 4.33464 316.411 4.9043 316.229 5.72461C314.588 5.86133 313.266 5.99805 312.264 6.13477C311.261 6.27148 309.917 6.49935 308.23 6.81836C306.59 7.13737 305.268 7.52474 304.266 7.98047C303.263 8.39062 302.374 8.98307 301.6 9.75781C300.825 10.487 300.415 11.3301 300.369 12.2871C299.913 22.9967 299.686 35.7344 299.686 50.5C299.686 65.4935 299.982 79.8717 300.574 93.6348C300.62 94.8197 301.144 95.8451 302.146 96.7109C303.149 97.5312 304.585 98.1693 306.453 98.625C308.367 99.0807 309.962 99.4225 311.238 99.6504C312.56 99.8327 314.269 100.015 316.365 100.197C316.548 100.926 316.639 101.542 316.639 102.043C316.639 102.408 316.548 102.863 316.365 103.41C308.663 103.137 300.734 103 292.576 103C284.373 103 276.443 103.137 268.787 103.41C268.605 102.863 268.514 102.408 268.514 102.043C268.514 101.268 268.605 100.653 268.787 100.197C270.883 100.015 272.57 99.8327 273.846 99.6504C275.167 99.4225 276.762 99.0807 278.631 98.625C280.545 98.1693 282.003 97.5312 283.006 96.7109C284.008 95.8451 284.533 94.8197 284.578 93.6348C285.034 79.416 285.262 66.724 285.262 55.5586C285.262 44.849 285.034 32.6582 284.578 18.9863H284.031L252.791 101.291H252.107L218.816 17.3457H218.064C217.7 28.4199 217.518 41.1576 217.518 55.5586C217.518 66.1315 217.745 78.4818 218.201 92.6094C218.292 96.7565 223.328 99.2858 233.309 100.197C233.536 100.972 233.65 101.587 233.65 102.043C233.65 102.499 233.536 102.954 233.309 103.41C226.062 103.137 219.591 103 213.895 103C210.249 103 204.142 103.137 195.574 103.41C195.346 102.954 195.232 102.499 195.232 102.043C195.232 101.268 195.346 100.653 195.574 100.197C205.646 99.2402 210.682 96.7109 210.682 92.6094C211.229 78.3906 211.502 64.3542 211.502 50.5C211.502 40.5195 211.365 29.9238 211.092 18.7129C211.046 16.7988 210.932 15.2038 210.75 13.9277C210.568 12.6061 210.226 11.4668 209.725 10.5098C209.223 9.55273 208.699 8.80078 208.152 8.25391C207.605 7.70703 206.762 7.22852 205.623 6.81836C204.484 6.36263 203.367 6.04362 202.273 5.86133C201.225 5.63346 199.721 5.38281 197.762 5.10938C197.579 4.74479 197.488 4.33464 197.488 3.87891C197.488 3.33203 197.579 2.8763 197.762 2.51172ZM326.961 2.51172C337.169 2.8763 345.099 3.05859 350.75 3.05859C356.401 3.05859 364.331 2.8763 374.539 2.51172C374.721 3.24089 374.812 3.74219 374.812 4.01562C374.812 4.33464 374.721 4.9043 374.539 5.72461C372.443 5.9069 370.734 6.11198 369.412 6.33984C368.136 6.52214 366.541 6.84115 364.627 7.29688C362.758 7.7526 361.323 8.41341 360.32 9.2793C359.318 10.0996 358.794 11.1022 358.748 12.2871C358.156 25.9134 357.859 38.6055 357.859 50.3633C362.918 50.5456 370.574 50.6367 380.828 50.6367C389.214 50.6367 397.622 50.5 406.053 50.2266C405.87 33.2734 405.643 20.627 405.369 12.2871C405.324 11.1022 404.799 10.0996 403.797 9.2793C402.794 8.41341 401.336 7.7526 399.422 7.29688C397.508 6.84115 395.89 6.52214 394.568 6.33984C393.292 6.11198 391.606 5.9069 389.51 5.72461C389.327 4.9043 389.236 4.33464 389.236 4.01562C389.236 3.74219 389.327 3.24089 389.51 2.51172C399.809 2.8763 407.739 3.05859 413.299 3.05859C418.904 3.05859 426.857 2.8763 437.156 2.51172C437.339 3.24089 437.43 3.74219 437.43 4.01562C437.43 4.33464 437.339 4.9043 437.156 5.72461C435.06 5.9069 433.351 6.11198 432.029 6.33984C430.753 6.52214 429.158 6.84115 427.244 7.29688C425.33 7.7526 423.872 8.41341 422.869 9.2793C421.867 10.0996 421.342 11.1022 421.297 12.2871C420.841 23.6348 420.613 37.2155 420.613 53.0293C420.613 68.752 420.841 82.2871 421.297 93.6348C421.342 94.8197 421.867 95.8451 422.869 96.7109C423.872 97.5312 425.33 98.1693 427.244 98.625C429.158 99.0807 430.753 99.4225 432.029 99.6504C433.351 99.8327 435.06 100.015 437.156 100.197C437.339 100.926 437.43 101.542 437.43 102.043C437.43 102.408 437.339 102.863 437.156 103.41C429.409 103.137 421.456 103 413.299 103C405.141 103 397.212 103.137 389.51 103.41C389.327 102.863 389.236 102.408 389.236 102.043C389.236 101.268 389.327 100.653 389.51 100.197C391.606 100.015 393.315 99.8327 394.637 99.6504C395.958 99.4225 397.576 99.0807 399.49 98.625C401.404 98.1693 402.863 97.5312 403.865 96.7109C404.868 95.8451 405.369 94.8197 405.369 93.6348C405.734 77.3652 405.962 65.0378 406.053 56.6523C397.622 56.3789 389.214 56.2422 380.828 56.2422C375.633 56.2422 367.977 56.3333 357.859 56.5156C357.859 66.2227 358.11 78.5957 358.611 93.6348C358.657 94.8197 359.181 95.8451 360.184 96.7109C361.186 97.5312 362.622 98.1693 364.49 98.625C366.404 99.0807 367.999 99.4225 369.275 99.6504C370.597 99.8327 372.306 100.015 374.402 100.197C374.585 101.109 374.676 101.724 374.676 102.043C374.676 102.408 374.585 102.863 374.402 103.41C366.655 103.137 358.725 103 350.613 103C342.41 103 334.48 103.137 326.824 103.41C326.642 102.863 326.551 102.408 326.551 102.043C326.551 101.268 326.642 100.653 326.824 100.197C328.921 100.015 330.607 99.8327 331.883 99.6504C333.204 99.4225 334.799 99.0807 336.668 98.625C338.582 98.1693 340.04 97.5312 341.043 96.7109C342.046 95.8451 342.57 94.8197 342.615 93.6348C343.162 79.3704 343.436 64.9922 343.436 50.5C343.436 35.7344 343.208 22.9967 342.752 12.2871C342.706 11.1022 342.182 10.0996 341.18 9.2793C340.177 8.41341 338.719 7.7526 336.805 7.29688C334.936 6.84115 333.341 6.52214 332.02 6.33984C330.743 6.11198 329.057 5.9069 326.961 5.72461C326.779 4.9043 326.688 4.33464 326.688 4.01562C326.688 3.5599 326.779 3.05859 326.961 2.51172ZM496.424 1.48633C497.107 0.985026 497.837 0.666016 498.611 0.529297L536.004 93.9082C536.46 95.0475 537.212 96.0273 538.26 96.8477C539.308 97.6224 540.607 98.2376 542.156 98.6934C543.751 99.1035 545.118 99.4225 546.258 99.6504C547.443 99.8327 548.878 100.015 550.564 100.197C550.747 100.926 550.838 101.542 550.838 102.043C550.838 102.59 550.747 103.091 550.564 103.547C540.721 103.182 533.361 103 528.484 103C523.198 103 515.542 103.182 505.516 103.547C505.333 103 505.242 102.453 505.242 101.906C505.242 101.314 505.333 100.744 505.516 100.197C514.721 99.1947 519.324 97.4629 519.324 95.002C519.324 94.2272 519.233 93.4297 519.051 92.6094L509.139 67.1797C506.131 67.0885 502.075 67.043 496.971 67.043C494.555 67.043 488.289 67.1341 478.172 67.3164L467.713 93.9082V94.7285C467.713 95.1842 467.781 95.6172 467.918 96.0273C468.1 96.4375 468.374 96.8021 468.738 97.1211C469.148 97.4401 469.536 97.7135 469.9 97.9414C470.265 98.1693 470.766 98.3971 471.404 98.625C472.088 98.8073 472.658 98.9668 473.113 99.1035C473.615 99.1947 474.275 99.3086 475.096 99.4453C475.962 99.582 476.622 99.696 477.078 99.7871C477.534 99.8327 478.195 99.901 479.061 99.9922C479.972 100.083 480.61 100.152 480.975 100.197C481.157 100.926 481.248 101.542 481.248 102.043C481.248 102.316 481.157 102.818 480.975 103.547C470.766 103.182 465.024 103 463.748 103C461.287 103 454.952 103.182 444.744 103.547C444.562 103 444.471 102.453 444.471 101.906C444.471 101.314 444.562 100.744 444.744 100.197C454.223 99.1035 459.624 96.7793 460.945 93.2246L490.34 19.123L488.836 15.0898C491.434 13.3581 493.234 11.4896 494.236 9.48438C495.285 7.47917 496.014 4.81315 496.424 1.48633ZM496.971 61.7109C501.163 61.7109 504.467 61.6654 506.883 61.5742L493.895 27.9414H493.621L480.564 61.4375C484.848 61.6198 490.317 61.7109 496.971 61.7109ZM558.973 2.51172C569.181 2.8763 577.111 3.05859 582.762 3.05859C588.413 3.05859 596.342 2.8763 606.551 2.51172C606.733 3.24089 606.824 3.74219 606.824 4.01562C606.824 4.51693 606.733 5.08659 606.551 5.72461C604.454 5.9069 602.745 6.11198 601.424 6.33984C600.148 6.52214 598.553 6.84115 596.639 7.29688C594.77 7.7526 593.335 8.41341 592.332 9.2793C591.329 10.0996 590.805 11.1022 590.76 12.2871C590.167 27.7819 589.871 42.2057 589.871 55.5586C589.871 65.3112 590.122 78.0033 590.623 93.6348C590.669 94.8197 591.193 95.8451 592.195 96.7109C593.198 97.5312 594.633 98.1693 596.502 98.625C598.416 99.0807 600.011 99.4225 601.287 99.6504C602.609 99.8327 604.318 100.015 606.414 100.197C606.596 100.744 606.688 101.359 606.688 102.043C606.688 102.408 606.596 102.863 606.414 103.41C598.667 103.137 590.737 103 582.625 103C574.422 103 566.492 103.137 558.836 103.41C558.654 102.863 558.562 102.408 558.562 102.043C558.562 101.268 558.654 100.653 558.836 100.197C560.203 100.061 561.297 99.9466 562.117 99.8555C562.938 99.7643 564.054 99.6048 565.467 99.377C566.925 99.1491 568.087 98.8984 568.953 98.625C569.865 98.306 570.799 97.9186 571.756 97.4629C572.713 97.0072 573.419 96.4603 573.875 95.8223C574.376 95.1842 574.627 94.4551 574.627 93.6348C575.174 79.3704 575.447 64.9922 575.447 50.5C575.447 35.7344 575.219 22.9967 574.764 12.2871C574.718 11.1022 574.194 10.0996 573.191 9.2793C572.189 8.41341 570.73 7.7526 568.816 7.29688C566.948 6.84115 565.353 6.52214 564.031 6.33984C562.755 6.11198 561.069 5.9069 558.973 5.72461C558.79 4.9043 558.699 4.33464 558.699 4.01562C558.699 3.5599 558.79 3.05859 558.973 2.51172ZM617.078 2.51172C624.552 2.8763 633.986 3.05859 645.379 3.05859C677.599 43.4362 694.917 64.9466 697.332 67.5898C699.747 70.1875 700.955 71.4863 700.955 71.4863H701.502C701.684 62.7363 701.775 55.6953 701.775 50.3633C701.775 39.8359 701.548 27.4629 701.092 13.2441C701.001 9.14258 695.942 6.63607 685.916 5.72461C685.734 4.72201 685.643 4.10677 685.643 3.87891C685.643 3.51432 685.734 3.05859 685.916 2.51172C693.253 2.78516 699.747 2.92188 705.398 2.92188C709.044 2.92188 715.151 2.78516 723.719 2.51172C723.901 3.05859 723.992 3.51432 723.992 3.87891C723.992 4.60807 723.901 5.22331 723.719 5.72461C713.738 6.63607 708.702 9.14258 708.611 13.2441C708.064 27.5085 707.791 41.5677 707.791 55.4219C707.791 76.6133 708.019 92.5638 708.475 103.273L707.244 103.41L639.295 19.8066H638.611C638.338 31.61 638.201 43.5273 638.201 55.5586C638.201 66.1315 638.429 78.4818 638.885 92.6094C638.976 96.7565 644.012 99.2858 653.992 100.197C654.22 100.972 654.334 101.587 654.334 102.043C654.334 102.499 654.22 102.954 653.992 103.41C646.746 103.137 640.275 103 634.578 103C630.932 103 624.826 103.137 616.258 103.41C616.03 102.954 615.916 102.499 615.916 102.043C615.916 101.268 616.03 100.653 616.258 100.197C626.329 99.2402 631.365 96.7109 631.365 92.6094C631.912 78.3906 632.186 64.3542 632.186 50.5C632.186 35.4609 632.003 22.4043 631.639 11.3301C627.811 8.00326 622.957 6.13477 617.078 5.72461C616.805 5.13216 616.668 4.60807 616.668 4.15234C616.668 3.46875 616.805 2.92188 617.078 2.51172Z" fill="white" fill-opacity="0.6"/>
<path d="M63.0938 31.4277L62.1146 31.6311L62.2316 32.1945L62.7775 32.3764L63.0938 31.4277ZM53.5234 12.0137L52.8163 12.7208L52.8198 12.7243L53.5234 12.0137ZM22.1465 9.62109L21.4957 8.86182L21.4908 8.86606L22.1465 9.62109ZM20.7793 33.8887L20.034 34.5555L20.043 34.5653L20.7793 33.8887ZM27.5469 38.4004L27.1394 39.3137L27.1513 39.3188L27.5469 38.4004ZM39.168 42.0918L38.9276 43.0625L38.9294 43.0629L39.168 42.0918ZM45.9355 43.8691L45.6608 44.8307L45.6667 44.8323L45.9355 43.8691ZM52.3613 46.125L51.9806 47.0497L51.9869 47.0522L52.3613 46.125ZM58.4453 49.2012L57.9011 50.0402L57.9113 50.0467L58.4453 49.2012ZM63.5723 53.3027L62.8749 54.0195L62.8847 54.029L62.8948 54.0383L63.5723 53.3027ZM67.7422 58.6348L66.8604 59.1064L66.8646 59.1143L66.869 59.1221L67.7422 58.6348ZM70.3398 65.6074L69.3669 65.8383L69.3692 65.8481L69.3717 65.8578L70.3398 65.6074ZM69.041 85.9102L69.9558 86.3141L69.9577 86.3097L69.041 85.9102ZM62.957 94.7969L62.2631 94.0768L62.957 94.7969ZM1.91211 97.9414L0.913179 97.8952L0.881965 98.5694L1.49558 98.8505L1.91211 97.9414ZM0.408203 66.6328L-0.128673 65.7892L-0.686986 66.1444L-0.578191 66.7972L0.408203 66.6328ZM3.62109 66.6328L4.6081 66.4721L4.53609 66.0298L4.15797 65.7892L3.62109 66.6328ZM8.33789 82.2188L7.43805 82.655L7.44166 82.6623L8.33789 82.2188ZM15.9941 92.9512L15.3168 93.6869L15.3232 93.6927L15.9941 92.9512ZM24.8809 98.8301L24.4836 99.7478L24.4918 99.7514L24.5001 99.7548L24.8809 98.8301ZM50.7207 95.207L51.4148 95.9269L51.415 95.9267L50.7207 95.207ZM52.2246 66.5645L51.4808 67.2328L51.4859 67.2385L51.491 67.2441L52.2246 66.5645ZM35.9551 58.9082L35.7125 59.8784L35.7177 59.8796L35.9551 58.9082ZM12.4395 47.834L11.7796 48.5854L11.7862 48.5911L12.4395 47.834ZM6.08203 17.0039L5.15967 16.6175L5.15709 16.6238L6.08203 17.0039ZM11.4824 8.9375L12.1581 9.67466L12.1588 9.67403L11.4824 8.9375ZM19.2754 3.87891L19.6829 4.79221L19.6944 4.78687L19.2754 3.87891ZM28.0254 1.07617L28.1974 2.06134L28.2097 2.05904L28.0254 1.07617ZM65.0762 6.54492L66.071 6.6461L66.1453 5.91605L65.4711 5.62622L65.0762 6.54492ZM66.3066 31.4277L66.6656 32.3611L67.5021 32.0393L67.2736 31.1727L66.3066 31.4277ZM64.0729 31.2244C62.313 22.7495 59.0517 16.0805 54.2271 11.3031L52.8198 12.7243C57.292 17.1526 60.4109 23.4263 62.1146 31.6311L64.0729 31.2244ZM54.2305 11.3066C49.4414 6.51741 43.6504 4.10938 36.9121 4.10938V6.10938C43.1165 6.10938 48.3998 8.30421 52.8163 12.7208L54.2305 11.3066ZM36.9121 4.10938C30.4272 4.10938 25.2435 5.64943 21.4957 8.86184L22.7973 10.3804C26.0677 7.57713 30.7277 6.10938 36.9121 6.10938V4.10938ZM21.4908 8.86606C17.7867 12.0828 15.9512 16.3799 15.9512 21.6523H17.9512C17.9512 16.8987 19.5792 13.175 22.8022 10.3761L21.4908 8.86606ZM15.9512 21.6523C15.9512 24.484 16.2056 26.8823 16.7389 28.8218L18.6673 28.2915C18.1981 26.5851 17.9512 24.3806 17.9512 21.6523H15.9512ZM16.7389 28.8218C17.2895 30.824 18.4047 32.7344 20.0341 34.5555L21.5245 33.2219C20.0549 31.5794 19.1193 29.9352 18.6673 28.2915L16.7389 28.8218ZM20.043 34.5653C21.7148 36.3846 24.1007 37.9579 27.1394 39.3136L27.9543 37.4872C25.0686 36.1997 22.9428 34.7651 21.5156 33.212L20.043 34.5653ZM27.1513 39.3188C30.1826 40.6246 34.114 41.8705 38.9276 43.0625L39.4083 41.1211C34.6516 39.9433 30.8356 38.7282 27.9425 37.482L27.1513 39.3188ZM38.9294 43.0629C41.5188 43.6989 43.762 44.2882 45.6608 44.8307L46.2103 42.9076C44.2809 42.3564 42.0125 41.7607 39.4065 41.1207L38.9294 43.0629ZM45.6667 44.8323C47.5807 45.3665 49.6848 46.1043 51.9806 47.0497L52.7421 45.2003C50.3895 44.2316 48.2096 43.4656 46.2043 42.9059L45.6667 44.8323ZM51.9869 47.0522C54.3125 47.9914 56.2807 48.989 57.9011 50.0401L58.9895 48.3622C57.2375 47.2258 55.1497 46.1726 52.7358 45.1978L51.9869 47.0522ZM57.9113 50.0467C59.5764 51.0983 61.2314 52.4203 62.8749 54.0195L64.2696 52.586C62.5408 50.9039 60.7778 49.4916 58.9793 48.3557L57.9113 50.0467ZM62.8948 54.0383C64.5491 55.562 65.8681 57.2513 66.8604 59.1064L68.624 58.1631C67.5199 56.099 66.059 54.2336 64.2497 52.5672L62.8948 54.0383ZM66.869 59.1221C67.9089 60.9852 68.7454 63.2193 69.3669 65.8383L71.3128 65.3765C70.6582 62.6179 69.763 60.2036 68.6154 58.1474L66.869 59.1221ZM69.3717 65.8578C70.0312 68.408 70.3652 71.2165 70.3652 74.2891H72.3652C72.3652 71.0725 72.0156 68.0933 71.308 65.357L69.3717 65.8578ZM70.3652 74.2891C70.3652 78.3556 69.6145 82.0919 68.1243 85.5106L69.9577 86.3097C71.5665 82.619 72.3652 78.608 72.3652 74.2891H70.3652ZM68.1262 85.5062C66.6238 88.9088 64.6671 91.7603 62.2631 94.0768L63.6509 95.517C66.26 93.0028 68.3593 89.9298 69.9558 86.3141L68.1262 85.5062ZM62.2631 94.0768C59.831 96.4205 57.018 98.4155 53.8183 100.06L54.7325 101.839C58.0953 100.111 61.0701 98.004 63.6509 95.517L62.2631 94.0768ZM53.8183 100.06C50.6061 101.711 47.3573 102.911 44.071 103.666L44.5188 105.615C47.9773 104.821 51.3822 103.56 54.7325 101.839L53.8183 100.06ZM44.071 103.666C40.7691 104.425 37.4946 104.803 34.2461 104.803V106.803C37.6512 106.803 41.0759 106.406 44.5188 105.615L44.071 103.666ZM34.2461 104.803C24.3032 104.803 13.6677 102.227 2.32864 97.0323L1.49558 98.8505C13.0341 104.137 23.9546 106.803 34.2461 106.803V104.803ZM2.91104 97.9877C3.13845 93.0756 3.25391 90.0176 3.25391 88.8496H1.25391C1.25391 89.9603 1.1415 92.9634 0.913179 97.8952L2.91104 97.9877ZM3.25391 88.8496C3.25391 81.3657 2.63405 73.9051 1.3946 66.4684L-0.578191 66.7972C0.643291 74.1261 1.25391 81.4767 1.25391 88.8496H3.25391ZM0.945079 67.4765C1.31608 67.2404 1.63382 67.1543 1.91211 67.1543V65.1543C1.1878 65.1543 0.502933 65.3872 -0.128673 65.7892L0.945079 67.4765ZM1.91211 67.1543C2.37458 67.1543 2.75528 67.2672 3.08422 67.4765L4.15797 65.7892C3.4843 65.3605 2.72568 65.1543 1.91211 65.1543V67.1543ZM2.63409 66.7935C3.60385 72.7506 5.20126 78.0416 7.43808 82.655L9.23771 81.7825C7.09952 77.3725 5.5524 72.2728 4.6081 66.4721L2.63409 66.7935ZM7.44166 82.6623C9.71414 87.2537 12.3335 90.9403 15.3168 93.6869L16.6714 92.2155C13.9126 89.6756 11.4278 86.2073 9.23412 81.7752L7.44166 82.6623ZM15.3232 93.6927C18.2623 96.3519 21.3151 98.3764 24.4836 99.7478L25.2781 97.9124C22.3398 96.6406 19.4681 94.7458 16.6651 92.2096L15.3232 93.6927ZM24.5001 99.7548C27.7118 101.077 30.9625 101.744 34.2461 101.744V99.7441C31.2406 99.7441 28.2478 99.135 25.2616 97.9054L24.5001 99.7548ZM34.2461 101.744C41.5684 101.744 47.3434 99.8529 51.4148 95.9269L50.0266 94.4872C46.4417 97.944 41.2337 99.7441 34.2461 99.7441V101.744ZM51.415 95.9267C55.5111 91.9752 57.5312 86.7796 57.5312 80.4414H55.5312C55.5312 86.3167 53.6777 90.9649 50.0264 94.4873L51.415 95.9267ZM57.5312 80.4414C57.5312 74.1507 56.0647 69.2379 52.9582 65.8848L51.491 67.2441C54.1267 70.0889 55.5312 74.4274 55.5312 80.4414H57.5312ZM52.9684 65.8961C49.9308 62.5155 44.2526 59.906 36.1924 57.9368L35.7177 59.8796C43.6992 61.8297 48.8674 64.3244 51.4808 67.2328L52.9684 65.8961ZM36.1976 57.9381C26.2682 55.4557 18.5889 51.8195 13.0928 47.0769L11.7862 48.5911C17.5921 53.6011 25.5899 57.3477 35.7125 59.8783L36.1976 57.9381ZM13.0993 47.0825C7.7291 42.3673 5.03125 36.1566 5.03125 28.3516H3.03125C3.03125 36.6793 5.93887 43.4569 11.7797 48.5854L13.0993 47.0825ZM5.03125 28.3516C5.03125 24.2208 5.69735 20.5708 7.00697 17.384L5.15709 16.6238C3.73233 20.0907 3.03125 24.0058 3.03125 28.3516H5.03125ZM7.00437 17.3903C8.37392 14.121 10.099 11.5622 12.1581 9.67466L10.8067 8.20034C8.49083 10.3232 6.61567 13.142 5.15969 16.6175L7.00437 17.3903ZM12.1588 9.67403C14.307 7.70123 16.8123 6.07284 19.6828 4.79214L18.8679 2.96568C15.814 4.32821 13.124 6.07221 10.806 8.20097L12.1588 9.67403ZM19.6944 4.78687C22.5873 3.45173 25.4211 2.54602 28.1974 2.06127L27.8534 0.0910759C24.8875 0.608932 21.888 1.57171 18.8563 2.97095L19.6944 4.78687ZM28.2097 2.05904C31.0648 1.52372 33.9653 1.25586 36.9121 1.25586V-0.744141C33.8433 -0.744141 30.8194 -0.465122 27.8411 0.0932999L28.2097 2.05904ZM36.9121 1.25586C45.7779 1.25586 55.0317 3.31522 64.6812 7.46362L65.4711 5.62622C55.6155 1.38921 46.0931 -0.744141 36.9121 -0.744141V1.25586ZM64.0813 6.44375C63.8042 9.16868 63.666 12.0053 63.666 14.9531H65.666C65.666 12.0676 65.8013 9.29876 66.071 6.6461L64.0813 6.44375ZM63.666 14.9531C63.666 21.8307 64.215 27.4182 65.3397 31.6827L67.2736 31.1727C66.2108 27.143 65.666 21.7474 65.666 14.9531H63.666ZM65.9477 30.4944C65.4139 30.6997 65.0419 30.7695 64.8027 30.7695V32.7695C65.3839 32.7695 66.0145 32.6115 66.6656 32.3611L65.9477 30.4944ZM64.8027 30.7695C64.4983 30.7695 64.0437 30.6903 63.41 30.479L62.7775 32.3764C63.511 32.6209 64.1958 32.7695 64.8027 32.7695V30.7695ZM133.846 1.48633L133.254 0.679924L132.906 0.935326L132.853 1.36397L133.846 1.48633ZM136.033 0.529297L136.962 0.157555L136.66 -0.59668L135.859 -0.455486L136.033 0.529297ZM173.426 93.9082L174.354 93.5368L174.354 93.5365L173.426 93.9082ZM175.682 96.8477L175.065 97.6352L175.076 97.6436L175.087 97.6518L175.682 96.8477ZM179.578 98.6934L179.296 99.6527L179.312 99.6576L179.329 99.6618L179.578 98.6934ZM183.68 99.6504L183.484 100.631L183.506 100.635L183.528 100.639L183.68 99.6504ZM187.986 100.197L188.956 99.9547L188.787 99.278L188.094 99.2031L187.986 100.197ZM187.986 103.547L187.949 104.546L188.653 104.572L188.915 103.918L187.986 103.547ZM142.938 103.547L141.989 103.863L142.226 104.573L142.974 104.546L142.938 103.547ZM142.938 100.197L142.829 99.2031L142.192 99.2726L141.989 99.881L142.938 100.197ZM156.473 92.6094L157.449 92.3924L157.432 92.3176L157.404 92.2462L156.473 92.6094ZM146.561 67.1797L147.492 66.8165L147.252 66.2002L146.591 66.1801L146.561 67.1797ZM115.594 67.3164L115.576 66.3166L114.908 66.3286L114.663 66.9504L115.594 67.3164ZM105.135 93.9082L104.204 93.5422L104.135 93.7186V93.9082H105.135ZM105.34 96.0273L104.391 96.3436L104.406 96.3894L104.426 96.4335L105.34 96.0273ZM106.16 97.1211L105.502 97.8737L105.523 97.8927L105.546 97.9104L106.16 97.1211ZM108.826 98.625L108.49 99.5667L108.529 99.5806L108.569 99.5912L108.826 98.625ZM110.535 99.1035L110.248 100.061L110.301 100.077L110.356 100.087L110.535 99.1035ZM112.518 99.4453L112.353 100.432L112.362 100.433L112.518 99.4453ZM114.5 99.7871L114.304 100.768L114.352 100.777L114.4 100.782L114.5 99.7871ZM116.482 99.9922L116.378 100.987L116.383 100.987L116.482 99.9922ZM118.396 100.197L119.367 99.9547L119.2 99.29L118.521 99.205L118.396 100.197ZM118.396 103.547L118.361 104.546L119.17 104.575L119.367 103.789L118.396 103.547ZM82.166 103.547L81.2173 103.863L81.4539 104.573L82.2017 104.546L82.166 103.547ZM82.166 100.197L82.0514 99.2039L81.4187 99.2769L81.2173 99.881L82.166 100.197ZM98.3672 93.2246L97.4377 92.8559L97.4337 92.866L97.4299 92.8761L98.3672 93.2246ZM127.762 19.123L128.691 19.4918L128.833 19.1342L128.699 18.7737L127.762 19.123ZM126.258 15.0898L125.703 14.2578L125.044 14.6971L125.321 15.4392L126.258 15.0898ZM131.658 9.48438L130.772 9.02112L130.768 9.0291L130.764 9.03716L131.658 9.48438ZM144.305 61.5742L144.342 62.5735L145.742 62.5207L145.238 61.214L144.305 61.5742ZM131.316 27.9414L132.249 27.5812L132.002 26.9414H131.316V27.9414ZM131.043 27.9414V26.9414H130.359L130.111 27.5782L131.043 27.9414ZM117.986 61.4375L117.055 61.0743L116.547 62.3771L117.944 62.4366L117.986 61.4375ZM134.437 2.29273C135.007 1.87495 135.595 1.62212 136.207 1.51408L135.859 -0.455486C134.922 -0.290085 134.052 0.0951042 133.254 0.679924L134.437 2.29273ZM135.105 0.901039L172.497 94.2799L174.354 93.5365L136.962 0.157555L135.105 0.901039ZM172.497 94.2796C173.024 95.5965 173.89 96.7156 175.065 97.6352L176.298 96.0602C175.377 95.3391 174.739 94.4986 174.354 93.5368L172.497 94.2796ZM175.087 97.6518C176.249 98.5106 177.66 99.1716 179.296 99.6527L179.86 97.734C178.397 97.3037 177.211 96.7342 176.276 96.0435L175.087 97.6518ZM179.329 99.6618C180.935 100.075 182.321 100.398 183.484 100.631L183.876 98.6698C182.76 98.4466 181.411 98.1322 179.827 97.7249L179.329 99.6618ZM183.528 100.639C184.732 100.824 186.183 101.008 187.879 101.191L188.094 99.2031C186.417 99.0218 184.997 98.8413 183.832 98.662L183.528 100.639ZM187.016 100.44C187.187 101.125 187.26 101.653 187.26 102.043H189.26C189.26 101.43 189.15 100.728 188.956 99.9547L187.016 100.44ZM187.26 102.043C187.26 102.477 187.188 102.851 187.058 103.175L188.915 103.918C189.149 103.332 189.26 102.703 189.26 102.043H187.26ZM188.023 102.548C178.177 102.183 170.802 102 165.906 102V104C170.763 104 178.108 104.182 187.949 104.546L188.023 102.548ZM165.906 102C160.601 102 152.931 102.183 142.901 102.548L142.974 104.546C152.996 104.182 160.638 104 165.906 104V102ZM143.886 103.231C143.736 102.78 143.664 102.34 143.664 101.906H141.664C141.664 102.566 141.774 103.22 141.989 103.863L143.886 103.231ZM143.664 101.906C143.664 101.418 143.739 100.956 143.886 100.513L141.989 99.881C141.772 100.533 141.664 101.209 141.664 101.906H143.664ZM143.046 101.191C147.672 100.687 151.225 99.9934 153.646 99.0824C154.855 98.6278 155.849 98.0946 156.556 97.4502C157.281 96.7903 157.746 95.9694 157.746 95.002H155.746C155.746 95.2649 155.636 95.5834 155.21 95.9717C154.766 96.3755 154.035 96.7993 152.942 97.2105C150.76 98.0314 147.408 98.7044 142.829 99.2031L143.046 101.191ZM157.746 95.002C157.746 94.1484 157.646 93.278 157.449 92.3924L155.496 92.8263C155.664 93.5813 155.746 94.306 155.746 95.002H157.746ZM157.404 92.2462L147.492 66.8165L145.629 67.5429L155.541 92.9725L157.404 92.2462ZM146.591 66.1801C143.568 66.0886 139.501 66.043 134.393 66.043V68.043C139.493 68.043 143.537 68.0885 146.53 68.1792L146.591 66.1801ZM134.393 66.043C131.966 66.043 125.689 66.1343 115.576 66.3166L115.612 68.3162C125.733 68.1339 131.988 68.043 134.393 68.043V66.043ZM114.663 66.9504L104.204 93.5422L106.065 94.2742L116.524 67.6824L114.663 66.9504ZM104.135 93.9082V94.7285H106.135V93.9082H104.135ZM104.135 94.7285C104.135 95.2859 104.219 95.826 104.391 96.3436L106.289 95.7111C106.188 95.4083 106.135 95.0826 106.135 94.7285H104.135ZM104.426 96.4335C104.672 96.9866 105.037 97.4668 105.502 97.8737L106.819 96.3685C106.555 96.1374 106.372 95.8884 106.254 95.6212L104.426 96.4335ZM105.546 97.9104C105.978 98.2463 106.393 98.5402 106.792 98.7894L107.852 97.0934C107.522 96.8869 107.163 96.6339 106.774 96.3317L105.546 97.9104ZM106.792 98.7894C107.242 99.0707 107.818 99.3268 108.49 99.5667L109.163 97.6833C108.558 97.4675 108.131 97.2679 107.852 97.0934L106.792 98.7894ZM108.569 99.5912C109.246 99.772 109.805 99.9286 110.248 100.061L110.823 98.1457C110.353 98.005 109.773 97.8426 109.084 97.6588L108.569 99.5912ZM110.356 100.087C110.864 100.18 111.531 100.295 112.353 100.432L112.682 98.4589C111.864 98.3226 111.208 98.2095 110.714 98.1196L110.356 100.087ZM112.362 100.433C113.224 100.569 113.868 100.681 114.304 100.768L114.696 98.8065C114.22 98.7113 113.543 98.5949 112.674 98.4576L112.362 100.433ZM114.4 100.782C114.854 100.827 115.512 100.896 116.378 100.987L116.587 98.9977C115.721 98.9065 115.058 98.8379 114.6 98.7921L114.4 100.782ZM116.383 100.987C117.295 101.078 117.922 101.146 118.272 101.19L118.521 99.205C118.142 99.1577 117.493 99.0883 116.582 98.9971L116.383 100.987ZM117.426 100.44C117.598 101.125 117.67 101.653 117.67 102.043H119.67C119.67 101.43 119.56 100.728 119.367 99.9547L117.426 100.44ZM117.67 102.043C117.67 102.176 117.612 102.562 117.426 103.304L119.367 103.789C119.546 103.073 119.67 102.457 119.67 102.043H117.67ZM118.432 102.548C108.238 102.183 102.469 102 101.17 102V104C102.423 104 108.139 104.181 118.361 104.546L118.432 102.548ZM101.17 102C98.687 102 92.3316 102.183 82.1303 102.548L82.2017 104.546C92.4172 104.181 98.731 104 101.17 104V102ZM83.1147 103.231C82.9645 102.78 82.8926 102.34 82.8926 101.906H80.8926C80.8926 102.566 81.0029 103.22 81.2173 103.863L83.1147 103.231ZM82.8926 101.906C82.8926 101.418 82.9673 100.956 83.1147 100.513L81.2173 99.881C81.0001 100.533 80.8926 101.209 80.8926 101.906H82.8926ZM82.2806 101.191C87.0647 100.639 90.8934 99.7693 93.721 98.5523C96.5365 97.3406 98.507 95.718 99.3045 93.5731L97.4299 92.8761C96.9057 94.2859 95.5152 95.6028 92.9304 96.7152C90.3576 97.8225 86.7465 98.6621 82.0514 99.2039L82.2806 101.191ZM99.2967 93.5933L128.691 19.4918L126.832 18.7543L97.4377 92.8559L99.2967 93.5933ZM128.699 18.7737L127.195 14.7405L125.321 15.4392L126.825 19.4724L128.699 18.7737ZM126.813 15.9219C129.501 14.1296 131.448 12.1418 132.553 9.93159L130.764 9.03716C129.864 10.8374 128.21 12.5865 125.703 14.2578L126.813 15.9219ZM132.544 9.94763C133.668 7.79793 134.42 5.00269 134.838 1.60869L132.853 1.36397C132.451 4.62361 131.745 7.1604 130.772 9.02112L132.544 9.94763ZM134.393 62.7109C138.59 62.7109 141.909 62.6653 144.342 62.5735L144.267 60.5749C141.87 60.6654 138.58 60.7109 134.393 60.7109V62.7109ZM145.238 61.214L132.249 27.5812L130.384 28.3017L143.372 61.9345L145.238 61.214ZM131.316 26.9414H131.043V28.9414H131.316V26.9414ZM130.111 27.5782L117.055 61.0743L118.918 61.8007L131.975 28.3046L130.111 27.5782ZM117.944 62.4366C122.247 62.6197 127.732 62.7109 134.393 62.7109V60.7109C127.746 60.7109 122.293 60.6199 118.029 60.4384L117.944 62.4366ZM197.762 2.51172L197.804 1.51262L197.157 1.48508L196.867 2.06451L197.762 2.51172ZM230.096 3.05859L231.034 2.71218L230.792 2.05859H230.096V3.05859ZM256.551 74.6992L255.613 75.0456L255.854 75.6992H256.551V74.6992ZM256.893 74.6992V75.6992H257.579L257.826 75.0581L256.893 74.6992ZM284.441 3.05859V2.05859H283.755L283.508 2.69967L284.441 3.05859ZM316.229 2.51172L317.199 2.26918L317.002 1.4837L316.193 1.51234L316.229 2.51172ZM316.229 5.72461L316.312 6.72115L317.045 6.66003L317.205 5.94154L316.229 5.72461ZM308.23 6.81836L308.045 5.83578L308.04 5.83674L308.23 6.81836ZM304.266 7.98047L304.644 8.90602L304.662 8.89876L304.679 8.89083L304.266 7.98047ZM301.6 9.75781L302.285 10.486L302.296 10.4756L302.307 10.4649L301.6 9.75781ZM300.369 12.2871L299.37 12.2395L299.37 12.2446L300.369 12.2871ZM300.574 93.6348L301.573 93.5963L301.573 93.5918L300.574 93.6348ZM302.146 96.7109L301.493 97.4678L301.503 97.4765L301.513 97.4849L302.146 96.7109ZM306.453 98.625L306.216 99.5965L306.221 99.5978L306.453 98.625ZM311.238 99.6504L311.062 100.635L311.082 100.638L311.102 100.641L311.238 99.6504ZM316.365 100.197L317.335 99.9547L317.162 99.2628L316.452 99.201L316.365 100.197ZM316.365 103.41L316.33 104.41L317.077 104.436L317.314 103.726L316.365 103.41ZM268.787 103.41L267.838 103.726L268.075 104.436L268.823 104.41L268.787 103.41ZM268.787 100.197L268.7 99.201L268.087 99.2543L267.859 99.8259L268.787 100.197ZM273.846 99.6504L273.987 100.64L274.001 100.638L274.016 100.636L273.846 99.6504ZM278.631 98.625L278.399 97.6522L278.394 97.6535L278.631 98.625ZM283.006 96.7109L283.639 97.4849L283.649 97.4765L283.659 97.4678L283.006 96.7109ZM284.578 93.6348L285.577 93.6732L285.578 93.6668L284.578 93.6348ZM284.578 18.9863L285.578 18.953L285.545 17.9863H284.578V18.9863ZM284.031 18.9863V17.9863H283.341L283.096 18.6315L284.031 18.9863ZM252.791 101.291V102.291H253.481L253.726 101.646L252.791 101.291ZM252.107 101.291L251.178 101.66L251.428 102.291H252.107V101.291ZM218.816 17.3457L219.746 16.9771L219.496 16.3457H218.816V17.3457ZM218.064 17.3457V16.3457H217.097L217.065 17.3128L218.064 17.3457ZM218.201 92.6094L219.201 92.5874L219.201 92.5771L218.201 92.6094ZM233.309 100.197L234.268 99.9151L234.076 99.2632L233.4 99.2014L233.309 100.197ZM233.309 103.41L233.271 104.409L233.915 104.434L234.203 103.857L233.309 103.41ZM195.574 103.41L194.68 103.857L194.966 104.43L195.606 104.41L195.574 103.41ZM195.574 100.197L195.48 99.2018L194.928 99.2542L194.68 99.75L195.574 100.197ZM210.682 92.6094L209.682 92.5709L209.682 92.5901V92.6094H210.682ZM211.092 18.7129L210.092 18.7367V18.7373L211.092 18.7129ZM210.75 13.9277L209.759 14.0644L209.76 14.0692L210.75 13.9277ZM205.623 6.81836L205.252 7.74684L205.268 7.75333L205.284 7.75925L205.623 6.81836ZM202.273 5.86133L202.061 6.8385L202.085 6.8437L202.109 6.84772L202.273 5.86133ZM197.762 5.10938L196.867 5.55659L197.103 6.02708L197.624 6.09978L197.762 5.10938ZM197.719 3.51081C206.306 3.87622 217.1 4.05859 230.096 4.05859V2.05859C217.115 2.05859 206.353 1.87638 197.804 1.51262L197.719 3.51081ZM229.158 3.405L255.613 75.0456L257.489 74.3528L231.034 2.71218L229.158 3.405ZM256.551 75.6992H256.893V73.6992H256.551V75.6992ZM257.826 75.0581L285.375 3.41751L283.508 2.69967L255.959 74.3403L257.826 75.0581ZM284.441 4.05859H292.303V2.05859H284.441V4.05859ZM292.303 4.05859C297.971 4.05859 305.961 3.87581 316.264 3.51109L316.193 1.51234C305.898 1.87679 297.936 2.05859 292.303 2.05859V4.05859ZM315.258 2.75425C315.444 3.49623 315.502 3.88302 315.502 4.01562H317.502C317.502 3.60136 317.378 2.98553 317.199 2.26918L315.258 2.75425ZM315.502 4.01562C315.502 4.2104 315.436 4.67953 315.252 5.50768L317.205 5.94154C317.385 5.12906 317.502 4.45887 317.502 4.01562H315.502ZM316.145 4.72807C314.497 4.86546 313.156 5.00386 312.129 5.14394L312.399 7.1256C313.377 6.99223 314.679 6.8572 316.312 6.72115L316.145 4.72807ZM312.129 5.14394C311.101 5.28402 309.738 5.51545 308.045 5.83579L308.416 7.80093C310.096 7.48325 311.421 7.25895 312.399 7.1256L312.129 5.14394ZM308.04 5.83674C306.357 6.16385 304.952 6.56991 303.852 7.0701L304.679 8.89083C305.584 8.47957 306.822 8.11089 308.421 7.79998L308.04 5.83674ZM303.887 7.05492C302.76 7.51595 301.76 8.18317 300.893 9.0507L302.307 10.4649C302.989 9.78298 303.766 9.2653 304.644 8.90602L303.887 7.05492ZM300.914 9.02961C299.973 9.91507 299.43 10.994 299.37 12.2395L301.368 12.3347C301.4 11.6662 301.676 11.0589 302.285 10.486L300.914 9.02961ZM299.37 12.2446C298.914 22.9725 298.686 35.7251 298.686 50.5H300.686C300.686 35.7437 300.913 23.021 301.368 12.3296L299.37 12.2446ZM298.686 50.5C298.686 65.5066 298.982 79.8992 299.575 93.6778L301.573 93.5918C300.982 79.8443 300.686 65.4804 300.686 50.5H298.686ZM299.575 93.6732C299.632 95.1691 300.308 96.4442 301.493 97.4678L302.8 95.9541C301.98 95.2459 301.607 94.4702 301.573 93.5963L299.575 93.6732ZM301.513 97.4849C302.674 98.4344 304.267 99.1211 306.216 99.5965L306.69 97.6535C304.902 97.2174 303.624 96.6281 302.78 95.937L301.513 97.4849ZM306.221 99.5978C308.146 100.056 309.761 100.402 311.062 100.635L311.414 98.666C310.164 98.4427 308.589 98.1055 306.685 97.6522L306.221 99.5978ZM311.102 100.641C312.447 100.827 314.174 101.01 316.279 101.194L316.452 99.201C314.364 99.0195 312.673 98.8389 311.375 98.6598L311.102 100.641ZM315.395 100.44C315.566 101.125 315.639 101.653 315.639 102.043H317.639C317.639 101.43 317.529 100.728 317.335 99.9547L315.395 100.44ZM315.639 102.043C315.639 102.256 315.582 102.597 315.417 103.094L317.314 103.726C317.513 103.13 317.639 102.559 317.639 102.043H315.639ZM316.401 102.411C308.686 102.137 300.745 102 292.576 102V104C300.723 104 308.64 104.137 316.33 104.41L316.401 102.411ZM292.576 102C284.362 102 276.42 102.137 268.751 102.411L268.823 104.41C276.466 104.137 284.384 104 292.576 104V102ZM269.736 103.094C269.57 102.597 269.514 102.256 269.514 102.043H267.514C267.514 102.559 267.639 103.13 267.838 103.726L269.736 103.094ZM269.514 102.043C269.514 101.33 269.6 100.858 269.716 100.569L267.859 99.8259C267.61 100.448 267.514 101.206 267.514 102.043H269.514ZM268.874 101.194C270.979 101.01 272.685 100.826 273.987 100.64L273.704 98.6604C272.454 98.839 270.788 99.0195 268.7 99.201L268.874 101.194ZM274.016 100.636C275.367 100.403 276.986 100.056 278.868 99.5965L278.394 97.6535C276.539 98.1059 274.968 98.4422 273.676 98.6649L274.016 100.636ZM278.862 99.5978C280.854 99.1236 282.474 98.4378 283.639 97.4849L282.373 95.937C281.532 96.6247 280.236 97.215 278.399 97.6522L278.862 99.5978ZM283.659 97.4678C284.845 96.4442 285.52 95.1691 285.577 93.6732L283.579 93.5963C283.545 94.4702 283.172 95.2459 282.352 95.9541L283.659 97.4678ZM285.578 93.6668C286.034 79.4401 286.262 66.7371 286.262 55.5586H284.262C284.262 66.7109 284.034 79.3919 283.579 93.6027L285.578 93.6668ZM286.262 55.5586C286.262 44.8353 286.034 32.6331 285.578 18.953L283.579 19.0196C284.034 32.6833 284.262 44.8626 284.262 55.5586H286.262ZM284.578 17.9863H284.031V19.9863H284.578V17.9863ZM283.096 18.6315L251.856 100.936L253.726 101.646L284.966 19.3412L283.096 18.6315ZM252.791 100.291H252.107V102.291H252.791V100.291ZM253.037 100.922L219.746 16.9771L217.887 17.7144L251.178 101.66L253.037 100.922ZM218.816 16.3457H218.064V18.3457H218.816V16.3457ZM217.065 17.3128C216.7 28.4007 216.518 41.1496 216.518 55.5586H218.518C218.518 41.1655 218.7 28.4392 219.064 17.3786L217.065 17.3128ZM216.518 55.5586C216.518 66.1451 216.746 78.5066 217.202 92.6416L219.201 92.5771C218.745 78.457 218.518 66.1179 218.518 55.5586H216.518ZM217.201 92.6313C217.258 95.206 218.885 97.1479 221.598 98.5103C224.283 99.8589 228.184 100.733 233.218 101.193L233.4 99.2014C228.452 98.7496 224.846 97.9038 222.495 96.7231C220.172 95.5562 219.235 94.1599 219.201 92.5874L217.201 92.6313ZM232.349 100.479C232.567 101.222 232.65 101.729 232.65 102.043H234.65C234.65 101.445 234.505 100.722 234.268 99.9151L232.349 100.479ZM232.65 102.043C232.65 102.326 232.581 102.63 232.414 102.963L234.203 103.857C234.492 103.279 234.65 102.671 234.65 102.043H232.65ZM233.346 102.411C226.091 102.137 219.607 102 213.895 102V104C219.576 104 226.034 104.136 233.271 104.409L233.346 102.411ZM213.895 102C210.231 102 204.11 102.137 195.542 102.411L195.606 104.41C204.173 104.136 210.266 104 213.895 104V102ZM196.469 102.963C196.302 102.63 196.232 102.326 196.232 102.043H194.232C194.232 102.671 194.391 103.279 194.68 103.857L196.469 102.963ZM196.232 102.043C196.232 101.35 196.337 100.908 196.469 100.644L194.68 99.75C194.356 100.398 194.232 101.187 194.232 102.043H196.232ZM195.669 101.193C200.746 100.71 204.67 99.8242 207.354 98.4761C210.063 97.1151 211.682 95.1779 211.682 92.6094H209.682C209.682 94.1425 208.782 95.5206 206.456 96.6889C204.104 97.8701 200.474 98.7271 195.48 99.2018L195.669 101.193ZM211.681 92.6478C212.228 78.4166 212.502 64.3673 212.502 50.5H210.502C210.502 64.341 210.229 78.3647 209.682 92.5709L211.681 92.6478ZM212.502 50.5C212.502 40.5105 212.365 29.9066 212.092 18.6885L210.092 18.7373C210.365 29.9411 210.502 40.5286 210.502 50.5H212.502ZM212.092 18.6891C212.045 16.7526 211.93 15.1151 211.74 13.7863L209.76 14.0692C209.935 15.2924 210.047 16.8451 210.092 18.7367L212.092 18.6891ZM211.741 13.7911C211.546 12.381 211.176 11.1259 210.61 10.0458L208.839 10.9738C209.276 11.8077 209.589 12.8312 209.759 14.0644L211.741 13.7911ZM210.61 10.0458C210.079 9.0318 209.5 8.1873 208.859 7.5468L207.445 8.96101C207.898 9.41426 208.367 10.0737 208.839 10.9738L210.61 10.0458ZM208.859 7.5468C208.166 6.85352 207.169 6.3122 205.962 5.87747L205.284 7.75925C206.355 8.14483 207.045 8.56055 207.445 8.96101L208.859 7.5468ZM205.994 5.88988C204.795 5.41026 203.61 5.07021 202.438 4.87494L202.109 6.84772C203.125 7.01702 204.172 7.315 205.252 7.74684L205.994 5.88988ZM202.486 4.88415C201.401 4.64824 199.867 4.39351 197.9 4.11897L197.624 6.09978C199.575 6.37212 201.05 6.61868 202.061 6.8385L202.486 4.88415ZM198.656 4.66216C198.551 4.4521 198.488 4.19791 198.488 3.87891H196.488C196.488 4.47136 196.608 5.03748 196.867 5.55659L198.656 4.66216ZM198.488 3.87891C198.488 3.43668 198.563 3.14556 198.656 2.95893L196.867 2.06451C196.596 2.60705 196.488 3.22738 196.488 3.87891H198.488ZM326.961 2.51172L326.997 1.51236L326.249 1.48565L326.012 2.19549L326.961 2.51172ZM374.539 2.51172L375.509 2.26918L375.313 1.48345L374.503 1.51236L374.539 2.51172ZM374.539 5.72461L374.626 6.72085L375.356 6.65733L375.515 5.94154L374.539 5.72461ZM369.412 6.33984L369.554 7.32979L369.568 7.32775L369.582 7.3253L369.412 6.33984ZM364.627 7.29688L364.395 6.32405L364.39 6.32536L364.627 7.29688ZM360.32 9.2793L360.954 10.0533L360.964 10.0448L360.974 10.0361L360.32 9.2793ZM358.748 12.2871L359.747 12.3305L359.747 12.3255L358.748 12.2871ZM357.859 50.3633H356.859V51.3279L357.823 51.3626L357.859 50.3633ZM406.053 50.2266L406.085 51.226L407.063 51.1943L407.053 50.2158L406.053 50.2266ZM405.369 12.2871L406.369 12.2543L406.368 12.2487L405.369 12.2871ZM403.797 9.2793L403.143 10.0361L403.153 10.0448L403.164 10.0533L403.797 9.2793ZM394.568 6.33984L394.393 7.32427L394.412 7.32775L394.432 7.33046L394.568 6.33984ZM389.51 5.72461L388.534 5.94154L388.693 6.65733L389.423 6.72085L389.51 5.72461ZM389.51 2.51172L389.545 1.51234L388.736 1.4837L388.54 2.26918L389.51 2.51172ZM437.156 2.51172L438.126 2.26918L437.93 1.4837L437.121 1.51234L437.156 2.51172ZM437.156 5.72461L437.243 6.72085L437.973 6.65733L438.132 5.94154L437.156 5.72461ZM432.029 6.33984L432.171 7.32979L432.185 7.32775L432.199 7.3253L432.029 6.33984ZM422.869 9.2793L423.502 10.0533L423.513 10.0448L423.523 10.0361L422.869 9.2793ZM421.297 12.2871L422.296 12.3272L422.296 12.3255L421.297 12.2871ZM421.297 93.6348L422.296 93.5963L422.296 93.5946L421.297 93.6348ZM422.869 96.7109L422.216 97.4678L422.226 97.4765L422.236 97.4849L422.869 96.7109ZM427.244 98.625L427.013 99.5978L427.244 98.625ZM432.029 99.6504L431.854 100.635L431.873 100.638L431.893 100.641L432.029 99.6504ZM437.156 100.197L438.126 99.9547L437.953 99.2628L437.243 99.201L437.156 100.197ZM437.156 103.41L437.121 104.41L437.868 104.436L438.105 103.726L437.156 103.41ZM389.51 103.41L388.561 103.726L388.798 104.436L389.545 104.41L389.51 103.41ZM389.51 100.197L389.423 99.201L388.81 99.2543L388.581 99.8259L389.51 100.197ZM394.637 99.6504L394.773 100.641L394.79 100.639L394.807 100.636L394.637 99.6504ZM403.865 96.7109L404.498 97.4849L404.509 97.4765L404.519 97.4678L403.865 96.7109ZM405.369 93.6348L404.369 93.6124L404.369 93.6236V93.6348H405.369ZM406.053 56.6523L407.053 56.6632L407.063 55.6846L406.085 55.6529L406.053 56.6523ZM357.859 56.5156L357.841 55.5158L356.859 55.5335V56.5156H357.859ZM358.611 93.6348L357.612 93.6681L357.612 93.6732L358.611 93.6348ZM360.184 96.7109L359.53 97.4678L359.54 97.4765L359.55 97.4849L360.184 96.7109ZM364.49 98.625L364.253 99.5965L364.259 99.5978L364.49 98.625ZM369.275 99.6504L369.1 100.635L369.119 100.638L369.139 100.641L369.275 99.6504ZM374.402 100.197L375.383 100.001L375.236 99.266L374.489 99.201L374.402 100.197ZM374.402 103.41L374.367 104.41L375.115 104.436L375.351 103.726L374.402 103.41ZM326.824 103.41L325.876 103.726L326.112 104.436L326.86 104.41L326.824 103.41ZM326.824 100.197L326.738 99.201L326.124 99.2543L325.896 99.8259L326.824 100.197ZM331.883 99.6504L332.024 100.64L332.039 100.638L332.053 100.636L331.883 99.6504ZM336.668 98.625L336.436 97.6522L336.431 97.6535L336.668 98.625ZM341.043 96.7109L341.676 97.4849L341.687 97.4765L341.697 97.4678L341.043 96.7109ZM342.615 93.6348L343.615 93.6732V93.6731L342.615 93.6348ZM342.752 12.2871L341.753 12.3255L341.753 12.3296L342.752 12.2871ZM341.18 9.2793L340.526 10.0361L340.536 10.0448L340.546 10.0533L341.18 9.2793ZM336.805 7.29688L336.568 8.26841L336.573 8.26968L336.805 7.29688ZM332.02 6.33984L331.844 7.32427L331.863 7.32775L331.883 7.33046L332.02 6.33984ZM326.961 5.72461L325.985 5.94154L326.144 6.65733L326.874 6.72085L326.961 5.72461ZM326.925 3.51108C337.138 3.87581 345.081 4.05859 350.75 4.05859V2.05859C345.117 2.05859 337.201 1.87679 326.997 1.51236L326.925 3.51108ZM350.75 4.05859C356.419 4.05859 364.362 3.87581 374.575 3.51108L374.503 1.51236C364.299 1.87679 356.383 2.05859 350.75 2.05859V4.05859ZM373.569 2.75425C373.754 3.49623 373.812 3.88302 373.812 4.01562H375.812C375.812 3.60136 375.688 2.98553 375.509 2.26918L373.569 2.75425ZM373.812 4.01562C373.812 4.2104 373.747 4.67953 373.563 5.50768L375.515 5.94154C375.696 5.12906 375.812 4.45887 375.812 4.01562H373.812ZM374.452 4.72837C372.342 4.91189 370.602 5.11988 369.242 5.35439L369.582 7.3253C370.865 7.10407 372.543 6.90191 374.626 6.72085L374.452 4.72837ZM369.271 5.3499C367.953 5.53814 366.325 5.86452 364.395 6.32407L364.859 8.26968C366.757 7.81778 368.319 7.50613 369.554 7.32979L369.271 5.3499ZM364.39 6.32536C362.432 6.80288 360.831 7.5169 359.667 8.52247L360.974 10.0361C361.815 9.30992 363.085 8.70233 364.864 8.26839L364.39 6.32536ZM359.687 8.50534C358.486 9.48823 357.806 10.749 357.749 12.2487L359.747 12.3255C359.781 11.4554 360.15 10.711 360.954 10.0533L359.687 8.50534ZM357.749 12.2437C357.156 25.8822 356.859 38.5889 356.859 50.3633H358.859C358.859 38.622 359.155 25.9446 359.747 12.3305L357.749 12.2437ZM357.823 51.3626C362.901 51.5456 370.572 51.6367 380.828 51.6367V49.6367C370.577 49.6367 362.935 49.5455 357.895 49.3639L357.823 51.3626ZM380.828 51.6367C389.224 51.6367 397.643 51.4998 406.085 51.226L406.02 49.2271C397.6 49.5002 389.203 49.6367 380.828 49.6367V51.6367ZM407.053 50.2158C406.87 33.2612 406.642 20.6057 406.369 12.2543L404.37 12.3199C404.643 20.6482 404.871 33.2857 405.053 50.2373L407.053 50.2158ZM406.368 12.2487C406.311 10.749 405.631 9.48823 404.43 8.50534L403.164 10.0533C403.968 10.711 404.336 11.4554 404.37 12.3255L406.368 12.2487ZM404.451 8.52247C403.282 7.51329 401.654 6.80033 399.654 6.32407L399.19 8.26968C401.018 8.70488 402.307 9.31353 403.143 10.0361L404.451 8.52247ZM399.654 6.32407C397.721 5.86402 396.07 5.53745 394.705 5.34922L394.432 7.33046C395.71 7.50682 397.294 7.81827 399.19 8.26968L399.654 6.32407ZM394.744 5.35542C393.426 5.12007 391.707 4.91188 389.596 4.72837L389.423 6.72085C391.506 6.90193 393.158 7.10389 394.393 7.32427L394.744 5.35542ZM390.486 5.50768C390.302 4.67953 390.236 4.2104 390.236 4.01562H388.236C388.236 4.45887 388.353 5.12906 388.534 5.94154L390.486 5.50768ZM390.236 4.01562C390.236 3.88302 390.294 3.49623 390.48 2.75425L388.54 2.26918C388.361 2.98553 388.236 3.60136 388.236 4.01562H390.236ZM389.474 3.51109C399.778 3.8758 407.721 4.05859 413.299 4.05859V2.05859C407.757 2.05859 399.841 1.8768 389.545 1.51234L389.474 3.51109ZM413.299 4.05859C418.922 4.05859 426.888 3.87581 437.192 3.51109L437.121 1.51234C426.825 1.87679 418.887 2.05859 413.299 2.05859V4.05859ZM436.186 2.75425C436.372 3.49623 436.43 3.88302 436.43 4.01562H438.43C438.43 3.60136 438.305 2.98553 438.126 2.26918L436.186 2.75425ZM436.43 4.01562C436.43 4.2104 436.364 4.67953 436.18 5.50768L438.132 5.94154C438.313 5.12906 438.43 4.45887 438.43 4.01562H436.43ZM437.07 4.72837C434.959 4.91189 433.219 5.11988 431.859 5.35439L432.199 7.3253C433.482 7.10407 435.161 6.90191 437.243 6.72085L437.07 4.72837ZM431.888 5.3499C430.57 5.53814 428.943 5.86452 427.013 6.32407L427.476 8.26968C429.374 7.81778 430.936 7.50613 432.171 7.32979L431.888 5.3499ZM427.013 6.32407C425.012 6.80033 423.384 7.51329 422.216 8.52247L423.523 10.0361C424.359 9.31353 425.648 8.70488 427.476 8.26968L427.013 6.32407ZM422.236 8.50534C421.035 9.48823 420.355 10.749 420.298 12.2487L422.296 12.3255C422.33 11.4554 422.698 10.711 423.502 10.0533L422.236 8.50534ZM420.298 12.247C419.841 23.612 419.613 37.2069 419.613 53.0293H421.613C421.613 37.2241 421.841 23.6575 422.296 12.3272L420.298 12.247ZM419.613 53.0293C419.613 68.7607 419.841 82.3099 420.298 93.6749L422.296 93.5946C421.841 82.2643 421.613 68.7432 421.613 53.0293H419.613ZM420.298 93.6732C420.355 95.1691 421.03 96.4442 422.216 97.4678L423.523 95.9541C422.703 95.2459 422.33 94.4702 422.296 93.5963L420.298 93.6732ZM422.236 97.4849C423.401 98.4378 425.021 99.1236 427.013 99.5978L427.476 97.6522C425.639 97.215 424.343 96.6247 423.502 95.937L422.236 97.4849ZM427.013 99.5978C428.937 100.056 430.552 100.402 431.854 100.635L432.205 98.666C430.955 98.4427 429.38 98.1055 427.476 97.6522L427.013 99.5978ZM431.893 100.641C433.238 100.827 434.965 101.01 437.07 101.194L437.243 99.201C435.155 99.0195 433.464 98.8389 432.166 98.6598L431.893 100.641ZM436.186 100.44C436.357 101.125 436.43 101.653 436.43 102.043H438.43C438.43 101.43 438.32 100.728 438.126 99.9547L436.186 100.44ZM436.43 102.043C436.43 102.256 436.373 102.597 436.208 103.094L438.105 103.726C438.304 103.13 438.43 102.559 438.43 102.043H436.43ZM437.192 102.411C429.432 102.137 421.468 102 413.299 102V104C421.445 104 429.386 104.137 437.121 104.41L437.192 102.411ZM413.299 102C405.13 102 397.189 102.137 389.474 102.411L389.545 104.41C397.235 104.137 405.152 104 413.299 104V102ZM390.458 103.094C390.293 102.597 390.236 102.256 390.236 102.043H388.236C388.236 102.559 388.362 103.13 388.561 103.726L390.458 103.094ZM390.236 102.043C390.236 101.33 390.323 100.858 390.438 100.569L388.581 99.8259C388.332 100.448 388.236 101.206 388.236 102.043H390.236ZM389.596 101.194C391.701 101.01 393.428 100.827 394.773 100.641L394.5 98.6598C393.202 98.8389 391.511 99.0195 389.423 99.201L389.596 101.194ZM394.807 100.636C396.156 100.403 397.796 100.056 399.722 99.5978L399.259 97.6522C397.357 98.1051 395.761 98.4419 394.467 98.6649L394.807 100.636ZM399.722 99.5978C401.714 99.1236 403.334 98.4378 404.498 97.4849L403.232 95.937C402.391 96.6247 401.095 97.215 399.259 97.6522L399.722 99.5978ZM404.519 97.4678C405.712 96.437 406.369 95.1466 406.369 93.6348H404.369C404.369 94.4927 404.023 95.2531 403.212 95.9541L404.519 97.4678ZM406.369 93.6572C406.733 77.3866 406.961 65.0545 407.053 56.6632L405.053 56.6415C404.962 65.021 404.734 77.3438 404.369 93.6124L406.369 93.6572ZM406.085 55.6529C397.643 55.3791 389.224 55.2422 380.828 55.2422V57.2422C389.203 57.2422 397.6 57.3787 406.02 57.6518L406.085 55.6529ZM380.828 55.2422C375.624 55.2422 367.96 55.3335 357.841 55.5158L357.877 57.5155C367.993 57.3332 375.642 57.2422 380.828 57.2422V55.2422ZM356.859 56.5156C356.859 66.238 357.11 78.6232 357.612 93.6681L359.611 93.6015C359.11 78.5682 358.859 66.2073 358.859 56.5156H356.859ZM357.612 93.6732C357.67 95.1691 358.345 96.4442 359.53 97.4678L360.837 95.9541C360.017 95.2459 359.644 94.4702 359.611 93.5963L357.612 93.6732ZM359.55 97.4849C360.711 98.4344 362.304 99.1211 364.253 99.5965L364.727 97.6535C362.939 97.2174 361.661 96.6281 360.817 95.937L359.55 97.4849ZM364.259 99.5978C366.183 100.056 367.798 100.402 369.1 100.635L369.451 98.666C368.201 98.4427 366.626 98.1055 364.722 97.6522L364.259 99.5978ZM369.139 100.641C370.484 100.827 372.211 101.01 374.316 101.194L374.489 99.201C372.401 99.0195 370.71 98.8389 369.412 98.6598L369.139 100.641ZM373.422 100.393C373.607 101.319 373.676 101.839 373.676 102.043H375.676C375.676 101.609 375.562 100.898 375.383 100.001L373.422 100.393ZM373.676 102.043C373.676 102.256 373.619 102.597 373.454 103.094L375.351 103.726C375.55 103.13 375.676 102.559 375.676 102.043H373.676ZM374.438 102.411C366.678 102.137 358.736 102 350.613 102V104C358.714 104 366.632 104.137 374.367 104.41L374.438 102.411ZM350.613 102C342.399 102 334.457 102.137 326.789 102.411L326.86 104.41C334.503 104.137 342.421 104 350.613 104V102ZM327.773 103.094C327.607 102.597 327.551 102.256 327.551 102.043H325.551C325.551 102.559 325.677 103.13 325.876 103.726L327.773 103.094ZM327.551 102.043C327.551 101.33 327.637 100.858 327.753 100.569L325.896 99.8259C325.647 100.448 325.551 101.206 325.551 102.043H327.551ZM326.911 101.194C329.016 101.01 330.722 100.826 332.024 100.64L331.741 98.6604C330.491 98.839 328.826 99.0195 326.738 99.201L326.911 101.194ZM332.053 100.636C333.404 100.403 335.023 100.056 336.905 99.5965L336.431 97.6535C334.576 98.1059 333.005 98.4422 331.713 98.6649L332.053 100.636ZM336.9 99.5978C338.891 99.1236 340.512 98.4378 341.676 97.4849L340.41 95.937C339.569 96.6247 338.273 97.215 336.436 97.6522L336.9 99.5978ZM341.697 97.4678C342.882 96.4442 343.557 95.1691 343.615 93.6732L341.616 93.5963C341.582 94.4702 341.209 95.2459 340.389 95.9541L341.697 97.4678ZM343.615 93.6731C344.162 79.3958 344.436 65.0048 344.436 50.5H342.436C342.436 64.9796 342.162 79.3451 341.616 93.5965L343.615 93.6731ZM344.436 50.5C344.436 35.7251 344.208 22.9725 343.751 12.2446L341.753 12.3296C342.208 23.021 342.436 35.7437 342.436 50.5H344.436ZM343.751 12.2487C343.694 10.749 343.014 9.48823 341.813 8.50534L340.546 10.0533C341.35 10.711 341.719 11.4554 341.753 12.3255L343.751 12.2487ZM341.833 8.52247C340.665 7.51329 339.037 6.80033 337.036 6.32407L336.573 8.26968C338.401 8.70488 339.689 9.31353 340.526 10.0361L341.833 8.52247ZM337.042 6.32536C335.153 5.86474 333.523 5.5377 332.156 5.34922L331.883 7.33046C333.16 7.50657 334.719 7.81755 336.568 8.26839L337.042 6.32536ZM332.195 5.35542C330.877 5.12007 329.158 4.91188 327.048 4.72837L326.874 6.72085C328.957 6.90193 330.61 7.10389 331.844 7.32427L332.195 5.35542ZM327.937 5.50768C327.753 4.67953 327.688 4.2104 327.688 4.01562H325.688C325.688 4.45887 325.804 5.12906 325.985 5.94154L327.937 5.50768ZM327.688 4.01562C327.688 3.69151 327.753 3.2986 327.91 2.82795L326.012 2.19549C325.805 2.81859 325.688 3.42828 325.688 4.01562H327.688ZM496.424 1.48633L495.832 0.679924L495.484 0.935326L495.431 1.36397L496.424 1.48633ZM498.611 0.529297L499.54 0.157555L499.238 -0.59668L498.438 -0.455486L498.611 0.529297ZM536.004 93.9082L536.932 93.5368L536.932 93.5365L536.004 93.9082ZM538.26 96.8477L537.643 97.6352L537.654 97.6436L537.665 97.6518L538.26 96.8477ZM542.156 98.6934L541.874 99.6527L541.891 99.6576L541.907 99.6618L542.156 98.6934ZM546.258 99.6504L546.062 100.631L546.084 100.635L546.106 100.639L546.258 99.6504ZM550.564 100.197L551.535 99.9547L551.365 99.278L550.672 99.2031L550.564 100.197ZM550.564 103.547L550.527 104.546L551.231 104.572L551.493 103.918L550.564 103.547ZM505.516 103.547L504.567 103.863L504.804 104.573L505.552 104.546L505.516 103.547ZM505.516 100.197L505.407 99.2031L504.77 99.2726L504.567 99.881L505.516 100.197ZM519.051 92.6094L520.027 92.3924L520.01 92.3176L519.982 92.2462L519.051 92.6094ZM509.139 67.1797L510.07 66.8165L509.83 66.2002L509.169 66.1801L509.139 67.1797ZM478.172 67.3164L478.154 66.3166L477.486 66.3286L477.241 66.9504L478.172 67.3164ZM467.713 93.9082L466.782 93.5422L466.713 93.7186V93.9082H467.713ZM467.918 96.0273L466.969 96.3436L466.985 96.3894L467.004 96.4335L467.918 96.0273ZM468.738 97.1211L468.08 97.8737L468.102 97.8927L468.124 97.9104L468.738 97.1211ZM471.404 98.625L471.068 99.5667L471.107 99.5806L471.147 99.5912L471.404 98.625ZM473.113 99.1035L472.826 100.061L472.879 100.077L472.934 100.087L473.113 99.1035ZM475.096 99.4453L474.931 100.432L474.94 100.433L475.096 99.4453ZM477.078 99.7871L476.882 100.768L476.93 100.777L476.979 100.782L477.078 99.7871ZM479.061 99.9922L478.956 100.987L478.961 100.987L479.061 99.9922ZM480.975 100.197L481.945 99.9547L481.779 99.29L481.099 99.205L480.975 100.197ZM480.975 103.547L480.939 104.546L481.748 104.575L481.945 103.789L480.975 103.547ZM444.744 103.547L443.795 103.863L444.032 104.573L444.78 104.546L444.744 103.547ZM444.744 100.197L444.63 99.2039L443.997 99.2769L443.795 99.881L444.744 100.197ZM460.945 93.2246L460.016 92.8559L460.012 92.866L460.008 92.8761L460.945 93.2246ZM490.34 19.123L491.269 19.4918L491.411 19.1342L491.277 18.7737L490.34 19.123ZM488.836 15.0898L488.281 14.2578L487.622 14.6971L487.899 15.4392L488.836 15.0898ZM494.236 9.48438L493.35 9.02112L493.346 9.0291L493.342 9.03716L494.236 9.48438ZM506.883 61.5742L506.921 62.5735L508.32 62.5207L507.816 61.214L506.883 61.5742ZM493.895 27.9414L494.827 27.5812L494.58 26.9414H493.895V27.9414ZM493.621 27.9414V26.9414H492.938L492.689 27.5782L493.621 27.9414ZM480.564 61.4375L479.633 61.0743L479.125 62.3771L480.522 62.4366L480.564 61.4375ZM497.015 2.29273C497.585 1.87495 498.173 1.62212 498.785 1.51408L498.438 -0.455486C497.5 -0.290085 496.63 0.0951042 495.832 0.679924L497.015 2.29273ZM497.683 0.901039L535.076 94.2799L536.932 93.5365L499.54 0.157555L497.683 0.901039ZM535.075 94.2796C535.602 95.5965 536.469 96.7156 537.643 97.6352L538.876 96.0602C537.955 95.3391 537.317 94.4986 536.932 93.5368L535.075 94.2796ZM537.665 97.6518C538.827 98.5106 540.238 99.1716 541.874 99.6527L542.438 97.734C540.975 97.3037 539.789 96.7342 538.854 96.0435L537.665 97.6518ZM541.907 99.6618C543.513 100.075 544.899 100.398 546.062 100.631L546.454 98.6698C545.338 98.4466 543.989 98.1322 542.405 97.7249L541.907 99.6618ZM546.106 100.639C547.31 100.824 548.761 101.008 550.457 101.191L550.672 99.2031C548.995 99.0218 547.575 98.8413 546.41 98.662L546.106 100.639ZM549.594 100.44C549.766 101.125 549.838 101.653 549.838 102.043H551.838C551.838 101.43 551.728 100.728 551.535 99.9547L549.594 100.44ZM549.838 102.043C549.838 102.477 549.766 102.851 549.636 103.175L551.493 103.918C551.728 103.332 551.838 102.703 551.838 102.043H549.838ZM550.601 102.548C540.755 102.183 533.38 102 528.484 102V104C533.341 104 540.686 104.182 550.527 104.546L550.601 102.548ZM528.484 102C523.179 102 515.509 102.183 505.479 102.548L505.552 104.546C515.575 104.182 523.216 104 528.484 104V102ZM506.464 103.231C506.314 102.78 506.242 102.34 506.242 101.906H504.242C504.242 102.566 504.353 103.22 504.567 103.863L506.464 103.231ZM506.242 101.906C506.242 101.418 506.317 100.956 506.464 100.513L504.567 99.881C504.35 100.533 504.242 101.209 504.242 101.906H506.242ZM505.624 101.191C510.251 100.687 513.803 99.9934 516.224 99.0824C517.433 98.6278 518.427 98.0946 519.135 97.4502C519.859 96.7903 520.324 95.9694 520.324 95.002H518.324C518.324 95.2649 518.214 95.5834 517.788 95.9717C517.344 96.3755 516.613 96.7993 515.52 97.2105C513.338 98.0314 509.986 98.7044 505.407 99.2031L505.624 101.191ZM520.324 95.002C520.324 94.1484 520.224 93.278 520.027 92.3924L518.075 92.8263C518.242 93.5813 518.324 94.306 518.324 95.002H520.324ZM519.982 92.2462L510.07 66.8165L508.207 67.5429L518.119 92.9725L519.982 92.2462ZM509.169 66.1801C506.146 66.0886 502.079 66.043 496.971 66.043V68.043C502.071 68.043 506.115 68.0885 509.108 68.1792L509.169 66.1801ZM496.971 66.043C494.544 66.043 488.267 66.1343 478.154 66.3166L478.19 68.3162C488.311 68.1339 494.566 68.043 496.971 68.043V66.043ZM477.241 66.9504L466.782 93.5422L468.643 94.2742L479.102 67.6824L477.241 66.9504ZM466.713 93.9082V94.7285H468.713V93.9082H466.713ZM466.713 94.7285C466.713 95.2859 466.797 95.826 466.969 96.3436L468.867 95.7111C468.766 95.4083 468.713 95.0826 468.713 94.7285H466.713ZM467.004 96.4335C467.25 96.9866 467.615 97.4668 468.08 97.8737L469.397 96.3685C469.133 96.1374 468.951 95.8884 468.832 95.6212L467.004 96.4335ZM468.124 97.9104C468.556 98.2463 468.972 98.5402 469.37 98.7894L470.43 97.0934C470.1 96.8869 469.741 96.6339 469.352 96.3317L468.124 97.9104ZM469.37 98.7894C469.82 99.0707 470.396 99.3268 471.068 99.5667L471.741 97.6833C471.136 97.4675 470.71 97.2679 470.43 97.0934L469.37 98.7894ZM471.147 99.5912C471.825 99.772 472.384 99.9286 472.826 100.061L473.401 98.1457C472.932 98.005 472.351 97.8426 471.662 97.6588L471.147 99.5912ZM472.934 100.087C473.443 100.18 474.109 100.295 474.931 100.432L475.26 98.4589C474.442 98.3226 473.787 98.2095 473.292 98.1196L472.934 100.087ZM474.94 100.433C475.802 100.569 476.447 100.681 476.882 100.768L477.274 98.8065C476.798 98.7113 476.121 98.5949 475.252 98.4576L474.94 100.433ZM476.979 100.782C477.432 100.827 478.09 100.896 478.956 100.987L479.165 98.9977C478.299 98.9065 477.636 98.8379 477.178 98.7921L476.979 100.782ZM478.961 100.987C479.873 101.078 480.5 101.146 480.851 101.19L481.099 99.205C480.72 99.1577 480.071 99.0883 479.16 98.9971L478.961 100.987ZM480.004 100.44C480.176 101.125 480.248 101.653 480.248 102.043H482.248C482.248 101.43 482.138 100.728 481.945 99.9547L480.004 100.44ZM480.248 102.043C480.248 102.176 480.19 102.562 480.004 103.304L481.945 103.789C482.124 103.073 482.248 102.457 482.248 102.043H480.248ZM481.01 102.548C470.816 102.183 465.047 102 463.748 102V104C465.001 104 470.717 104.181 480.939 104.546L481.01 102.548ZM463.748 102C461.265 102 454.91 102.183 444.708 102.548L444.78 104.546C454.995 104.181 461.309 104 463.748 104V102ZM445.693 103.231C445.543 102.78 445.471 102.34 445.471 101.906H443.471C443.471 102.566 443.581 103.22 443.795 103.863L445.693 103.231ZM445.471 101.906C445.471 101.418 445.545 100.956 445.693 100.513L443.795 99.881C443.578 100.533 443.471 101.209 443.471 101.906H445.471ZM444.859 101.191C449.643 100.639 453.471 99.7693 456.299 98.5523C459.115 97.3406 461.085 95.718 461.883 93.5731L460.008 92.8761C459.484 94.2859 458.093 95.6028 455.508 96.7152C452.936 97.8225 449.325 98.6621 444.63 99.2039L444.859 101.191ZM461.875 93.5933L491.269 19.4918L489.41 18.7543L460.016 92.8559L461.875 93.5933ZM491.277 18.7737L489.773 14.7405L487.899 15.4392L489.403 19.4724L491.277 18.7737ZM489.391 15.9219C492.079 14.1296 494.026 12.1418 495.131 9.93159L493.342 9.03716C492.442 10.8374 490.788 12.5865 488.281 14.2578L489.391 15.9219ZM495.123 9.94763C496.246 7.79793 496.998 5.00269 497.416 1.60869L495.431 1.36397C495.029 4.62361 494.323 7.1604 493.35 9.02112L495.123 9.94763ZM496.971 62.7109C501.168 62.7109 504.487 62.6653 506.921 62.5735L506.845 60.5749C504.448 60.6654 501.159 60.7109 496.971 60.7109V62.7109ZM507.816 61.214L494.827 27.5812L492.962 28.3017L505.95 61.9345L507.816 61.214ZM493.895 26.9414H493.621V28.9414H493.895V26.9414ZM492.689 27.5782L479.633 61.0743L481.496 61.8007L494.553 28.3046L492.689 27.5782ZM480.522 62.4366C484.825 62.6197 490.31 62.7109 496.971 62.7109V60.7109C490.324 60.7109 484.871 60.6199 480.607 60.4384L480.522 62.4366ZM558.973 2.51172L559.008 1.51236L558.261 1.48565L558.024 2.19549L558.973 2.51172ZM606.551 2.51172L607.521 2.26918L607.324 1.48345L606.515 1.51236L606.551 2.51172ZM606.551 5.72461L606.637 6.72085L607.323 6.66122L607.512 5.99933L606.551 5.72461ZM601.424 6.33984L601.565 7.32979L601.58 7.32775L601.594 7.3253L601.424 6.33984ZM596.639 7.29688L596.407 6.32405L596.402 6.32536L596.639 7.29688ZM592.332 9.2793L592.965 10.0533L592.976 10.0448L592.986 10.0361L592.332 9.2793ZM590.76 12.2871L589.76 12.2487V12.2489L590.76 12.2871ZM590.623 93.6348L589.624 93.6668L589.624 93.6732L590.623 93.6348ZM592.195 96.7109L591.542 97.4678L591.552 97.4765L591.562 97.4849L592.195 96.7109ZM596.502 98.625L596.265 99.5965L596.27 99.5978L596.502 98.625ZM601.287 99.6504L601.111 100.635L601.131 100.638L601.15 100.641L601.287 99.6504ZM606.414 100.197L607.363 99.881L607.155 99.2579L606.501 99.201L606.414 100.197ZM606.414 103.41L606.379 104.41L607.126 104.436L607.363 103.726L606.414 103.41ZM558.836 103.41L557.887 103.726L558.124 104.436L558.872 104.41L558.836 103.41ZM558.836 100.197L558.736 99.2022L558.133 99.2626L557.907 99.8259L558.836 100.197ZM565.467 99.377L565.312 98.3889L565.308 98.3897L565.467 99.377ZM568.953 98.625L569.254 99.5786L569.269 99.5739L569.283 99.5689L568.953 98.625ZM573.875 95.8223L573.089 95.2044L573.075 95.2224L573.061 95.241L573.875 95.8223ZM574.627 93.6348L573.628 93.5965L573.627 93.6156V93.6348H574.627ZM574.764 12.2871L573.764 12.3255L573.765 12.3296L574.764 12.2871ZM573.191 9.2793L572.538 10.0361L572.548 10.0448L572.558 10.0533L573.191 9.2793ZM568.816 7.29688L568.579 8.26841L568.585 8.26968L568.816 7.29688ZM564.031 6.33984L563.855 7.32427L563.875 7.32775L563.895 7.33046L564.031 6.33984ZM558.973 5.72461L557.996 5.94154L558.156 6.65733L558.886 6.72085L558.973 5.72461ZM558.937 3.51108C569.149 3.87581 577.093 4.05859 582.762 4.05859V2.05859C577.128 2.05859 569.213 1.87679 559.008 1.51236L558.937 3.51108ZM582.762 4.05859C588.431 4.05859 596.374 3.87581 606.586 3.51108L606.515 1.51236C596.311 1.87679 588.395 2.05859 582.762 2.05859V4.05859ZM605.581 2.75425C605.766 3.49623 605.824 3.88302 605.824 4.01562H607.824C607.824 3.60136 607.7 2.98553 607.521 2.26918L605.581 2.75425ZM605.824 4.01562C605.824 4.39958 605.754 4.8742 605.589 5.44989L607.512 5.99933C607.712 5.29898 607.824 4.63427 607.824 4.01562H605.824ZM606.464 4.72837C604.354 4.91189 602.614 5.11988 601.254 5.35439L601.594 7.3253C602.877 7.10407 604.555 6.90191 606.637 6.72085L606.464 4.72837ZM601.282 5.3499C599.965 5.53814 598.337 5.86452 596.407 6.32407L596.87 8.26968C598.768 7.81778 600.331 7.50613 601.565 7.32979L601.282 5.3499ZM596.402 6.32536C594.444 6.80288 592.843 7.5169 591.678 8.52247L592.986 10.0361C593.827 9.30992 595.096 8.70233 596.876 8.26839L596.402 6.32536ZM591.699 8.50534C590.497 9.48823 589.818 10.749 589.76 12.2487L591.759 12.3255C591.792 11.4554 592.161 10.711 592.965 10.0533L591.699 8.50534ZM589.76 12.2489C589.168 27.7545 588.871 42.1912 588.871 55.5586H590.871C590.871 42.2203 591.167 27.8093 591.759 12.3253L589.76 12.2489ZM588.871 55.5586C588.871 65.3263 589.122 78.0302 589.624 93.6668L591.623 93.6027C591.121 77.9764 590.871 65.2961 590.871 55.5586H588.871ZM589.624 93.6732C589.681 95.1691 590.357 96.4442 591.542 97.4678L592.849 95.9541C592.029 95.2459 591.656 94.4702 591.622 93.5963L589.624 93.6732ZM591.562 97.4849C592.723 98.4344 594.316 99.1211 596.265 99.5965L596.739 97.6535C594.951 97.2174 593.673 96.6281 592.829 95.937L591.562 97.4849ZM596.27 99.5978C598.195 100.056 599.81 100.402 601.111 100.635L601.463 98.666C600.212 98.4427 598.638 98.1055 596.734 97.6522L596.27 99.5978ZM601.15 100.641C602.495 100.827 604.223 101.01 606.327 101.194L606.501 99.201C604.413 99.0195 602.722 98.8389 601.424 98.6598L601.15 100.641ZM605.465 100.513C605.608 100.941 605.688 101.447 605.688 102.043H607.688C607.688 101.271 607.585 100.547 607.363 99.881L605.465 100.513ZM605.688 102.043C605.688 102.256 605.631 102.597 605.465 103.094L607.363 103.726C607.562 103.13 607.688 102.559 607.688 102.043H605.688ZM606.449 102.411C598.69 102.137 590.748 102 582.625 102V104C590.726 104 598.644 104.137 606.379 104.41L606.449 102.411ZM582.625 102C574.411 102 566.469 102.137 558.8 102.411L558.872 104.41C566.515 104.137 574.433 104 582.625 104V102ZM559.785 103.094C559.619 102.597 559.562 102.256 559.562 102.043H557.562C557.562 102.559 557.688 103.13 557.887 103.726L559.785 103.094ZM559.562 102.043C559.562 101.33 559.649 100.858 559.764 100.569L557.907 99.8259C557.659 100.448 557.562 101.206 557.562 102.043H559.562ZM558.935 101.192C560.304 101.055 561.402 100.941 562.228 100.849L562.007 98.8616C561.192 98.9521 560.102 99.0657 558.736 99.2022L558.935 101.192ZM562.228 100.849C563.072 100.756 564.207 100.593 565.626 100.364L565.308 98.3897C563.901 98.6166 562.803 98.7731 562.007 98.8616L562.228 100.849ZM565.621 100.365C567.103 100.133 568.32 99.8736 569.254 99.5786L568.652 97.6714C567.854 97.9233 566.748 98.1647 565.312 98.3889L565.621 100.365ZM569.283 99.5689C570.232 99.2369 571.199 98.8354 572.186 98.3658L571.326 96.56C570.398 97.0018 569.497 97.3751 568.623 97.6811L569.283 99.5689ZM572.186 98.3658C573.244 97.8617 574.106 97.2196 574.689 96.4035L573.061 95.241C572.733 95.7009 572.182 96.1526 571.326 96.56L572.186 98.3658ZM574.661 96.4401C575.303 95.6238 575.627 94.6765 575.627 93.6348H573.627C573.627 94.2337 573.45 94.7447 573.089 95.2044L574.661 96.4401ZM575.626 93.6731C576.174 79.3958 576.447 65.0048 576.447 50.5H574.447C574.447 64.9796 574.174 79.3451 573.628 93.5965L575.626 93.6731ZM576.447 50.5C576.447 35.7251 576.219 22.9725 575.763 12.2446L573.765 12.3296C574.22 23.021 574.447 35.7437 574.447 50.5H576.447ZM575.763 12.2487C575.705 10.749 575.026 9.48823 573.825 8.50534L572.558 10.0533C573.362 10.711 573.731 11.4554 573.764 12.3255L575.763 12.2487ZM573.845 8.52247C572.677 7.51329 571.048 6.80033 569.048 6.32407L568.585 8.26968C570.413 8.70488 571.701 9.31353 572.538 10.0361L573.845 8.52247ZM569.053 6.32536C567.165 5.86474 565.534 5.5377 564.168 5.34922L563.895 7.33046C565.171 7.50657 566.731 7.81755 568.579 8.26839L569.053 6.32536ZM564.207 5.35542C562.889 5.12007 561.17 4.91188 559.059 4.72837L558.886 6.72085C560.968 6.90193 562.621 7.10389 563.855 7.32427L564.207 5.35542ZM559.949 5.50768C559.765 4.67953 559.699 4.2104 559.699 4.01562H557.699C557.699 4.45887 557.816 5.12906 557.996 5.94154L559.949 5.50768ZM559.699 4.01562C559.699 3.69151 559.764 3.2986 559.921 2.82795L558.024 2.19549C557.816 2.81859 557.699 3.42828 557.699 4.01562H559.699ZM617.078 2.51172L617.127 1.51291L616.561 1.48528L616.246 1.95702L617.078 2.51172ZM645.379 3.05859L646.161 2.43487L645.86 2.05859H645.379V3.05859ZM697.332 67.5898L696.594 68.2644L696.6 68.2708L697.332 67.5898ZM700.955 71.4863L700.223 72.1673L700.519 72.4863H700.955V71.4863ZM701.502 71.4863V72.4863H702.481L702.502 71.5072L701.502 71.4863ZM701.092 13.2441L700.092 13.2664L700.092 13.2762L701.092 13.2441ZM685.916 5.72461L684.932 5.9035L685.068 6.65166L685.826 6.7205L685.916 5.72461ZM685.916 2.51172L685.953 1.51241L685.204 1.4845L684.967 2.19549L685.916 2.51172ZM723.719 2.51172L724.667 2.19549L724.432 1.48845L723.687 1.51223L723.719 2.51172ZM723.719 5.72461L723.81 6.72047L724.442 6.66275L724.659 6.06635L723.719 5.72461ZM708.611 13.2441L709.611 13.2825L709.611 13.2744L709.611 13.2664L708.611 13.2441ZM708.475 103.273L708.585 104.267L709.513 104.164L709.474 103.231L708.475 103.273ZM707.244 103.41L706.468 104.041L706.812 104.464L707.355 104.404L707.244 103.41ZM639.295 19.8066L640.071 19.1759L639.771 18.8066H639.295V19.8066ZM638.611 19.8066V18.8066H637.634L637.612 19.7835L638.611 19.8066ZM638.885 92.6094L639.885 92.5874L639.884 92.5771L638.885 92.6094ZM653.992 100.197L654.952 99.9151L654.76 99.2632L654.083 99.2014L653.992 100.197ZM653.992 103.41L653.954 104.409L654.598 104.434L654.887 103.857L653.992 103.41ZM616.258 103.41L615.363 103.857L615.65 104.43L616.29 104.41L616.258 103.41ZM616.258 100.197L616.163 99.2018L615.611 99.2542L615.363 99.75L616.258 100.197ZM631.365 92.6094L630.366 92.5709L630.365 92.5901V92.6094H631.365ZM631.639 11.3301L632.638 11.2972L632.624 10.8613L632.295 10.5753L631.639 11.3301ZM617.078 5.72461L616.17 6.14367L616.418 6.681L617.009 6.72218L617.078 5.72461ZM617.029 3.51053C624.526 3.8762 633.977 4.05859 645.379 4.05859V2.05859C633.995 2.05859 624.579 1.8764 617.127 1.51291L617.029 3.51053ZM644.597 3.68232C676.796 44.0338 694.149 65.5885 696.594 68.2644L698.07 66.9153C695.685 64.3047 678.401 42.8386 646.161 2.43487L644.597 3.68232ZM696.6 68.2708C696.604 68.2759 696.609 68.2809 696.614 68.286C696.619 68.2911 696.623 68.2961 696.628 68.3012C696.633 68.3062 696.637 68.3113 696.642 68.3163C696.647 68.3214 696.651 68.3264 696.656 68.3314C696.661 68.3365 696.665 68.3415 696.67 68.3465C696.675 68.3515 696.679 68.3566 696.684 68.3616C696.706 68.3855 696.69 68.3677 696.712 68.3916C696.717 68.3966 696.721 68.4016 696.726 68.4066C696.731 68.4116 696.735 68.4165 696.74 68.4215C696.749 68.4315 696.758 68.4414 696.768 68.4513C696.777 68.4619 696.813 68.5 696.823 68.5105C696.827 68.5154 696.832 68.5203 696.836 68.5252C696.841 68.5302 696.845 68.535 696.85 68.5399C696.889 68.5815 696.839 68.5277 696.877 68.5693C696.882 68.5741 696.886 68.579 696.891 68.5839C696.895 68.5887 696.9 68.5936 696.904 68.5984C696.909 68.6033 696.913 68.6082 696.918 68.613C696.922 68.6178 696.927 68.6227 696.931 68.6275C696.948 68.6452 697.023 68.7256 697.038 68.7426C697.043 68.7474 697.047 68.7521 697.052 68.7569C697.056 68.7616 697.06 68.7664 697.065 68.7711C697.069 68.7758 697.074 68.7806 697.078 68.7853C697.083 68.79 697.087 68.7947 697.091 68.7995C697.11 68.8193 697.099 68.8079 697.118 68.8277C697.122 68.8324 697.126 68.8371 697.131 68.8418C697.135 68.8465 697.139 68.8512 697.144 68.8558C697.178 68.8932 697.213 68.9304 697.247 68.9671C697.316 69.0407 697.383 69.113 697.449 69.184C697.457 69.1929 697.465 69.2018 697.474 69.2106C697.478 69.215 697.482 69.2194 697.486 69.2238C697.49 69.2283 697.494 69.2327 697.498 69.2371C697.518 69.2586 697.527 69.2682 697.547 69.2896C697.622 69.3704 697.569 69.3132 697.643 69.3933C697.697 69.4505 697.685 69.4385 697.738 69.4951C697.769 69.5287 697.8 69.562 697.831 69.595C697.835 69.5991 697.839 69.6032 697.842 69.6073C697.846 69.6115 697.85 69.6156 697.854 69.6197C697.875 69.642 697.856 69.6219 697.877 69.6442C697.886 69.6545 697.913 69.6828 697.922 69.693C697.972 69.747 697.962 69.7356 698.011 69.789C698.015 69.793 698.019 69.797 698.022 69.8009C698.026 69.8049 698.03 69.8088 698.033 69.8128C698.037 69.8167 698.041 69.8207 698.044 69.8246C698.048 69.8285 698.052 69.8325 698.055 69.8364C698.077 69.86 698.077 69.8598 698.099 69.8832C698.103 69.8871 698.106 69.891 698.11 69.8949C698.113 69.8987 698.117 69.9026 698.121 69.9065C698.124 69.9103 698.128 69.9142 698.131 69.9181C698.135 69.9219 698.139 69.9258 698.142 69.9296C698.146 69.9334 698.149 69.9373 698.153 69.9411C698.156 69.945 698.16 69.9488 698.164 69.9526C698.168 69.958 698.18 69.9702 698.185 69.9755C698.206 69.9984 698.206 69.9982 698.227 70.0209C698.245 70.0402 698.23 70.0242 698.248 70.0435C698.251 70.0472 698.255 70.0509 698.258 70.0547C698.262 70.0584 698.265 70.0621 698.269 70.0659C698.297 70.0957 698.324 70.1252 698.351 70.1543C698.405 70.2127 698.458 70.2698 698.51 70.3256C698.614 70.4372 698.713 70.5437 698.807 70.6452C698.996 70.8482 699.166 71.0307 699.317 71.1932C699.415 71.2985 699.653 71.5545 699.713 71.6193C699.793 71.7055 699.954 71.8782 699.996 71.9237C700.004 71.9322 700.044 71.9749 700.049 71.9808C700.057 71.9889 700.066 71.999 700.073 72.0065C700.076 72.0093 700.082 72.016 700.085 72.0186C700.085 72.0195 700.089 72.0237 700.09 72.0245C700.091 72.0255 700.092 72.0265 700.093 72.0274C700.094 72.0284 700.094 72.0293 700.095 72.0303C700.111 72.0473 700.121 72.0577 700.134 72.0721C700.139 72.0775 700.164 72.1036 700.166 72.1064C700.167 72.107 700.167 72.1077 700.168 72.1083C700.168 72.1089 700.169 72.1095 700.17 72.1101C700.171 72.1113 700.172 72.1126 700.173 72.1138C700.174 72.1144 700.174 72.1149 700.175 72.1155C700.175 72.1161 700.176 72.1167 700.176 72.1173C700.177 72.1177 700.179 72.1203 700.179 72.1207C700.18 72.1212 700.18 72.1218 700.181 72.1223C700.181 72.1229 700.182 72.1234 700.182 72.1239C700.183 72.1245 700.183 72.125 700.184 72.1255C700.184 72.126 700.185 72.1266 700.185 72.1271C700.191 72.1331 700.185 72.1272 700.191 72.133C700.199 72.1415 700.203 72.1461 700.209 72.1521C700.209 72.1528 700.211 72.155 700.212 72.1556C700.212 72.1557 700.213 72.1572 700.213 72.1572C700.214 72.1575 700.214 72.1577 700.214 72.158C700.214 72.1582 700.215 72.1585 700.215 72.1587C700.217 72.1608 700.215 72.1594 700.217 72.1613C700.217 72.1616 700.219 72.1633 700.219 72.1635C700.219 72.1636 700.22 72.1643 700.22 72.1644C700.22 72.1645 700.22 72.1646 700.22 72.1648C700.221 72.1649 700.221 72.165 700.221 72.1651C700.222 72.1663 700.221 72.1653 700.222 72.1663C700.222 72.1664 700.222 72.1665 700.222 72.1665C700.222 72.1666 700.222 72.1667 700.222 72.1667C700.222 72.1669 700.222 72.167 700.223 72.167C700.223 72.1671 700.223 72.1672 700.223 72.1672C700.223 72.1672 700.223 72.1672 700.223 72.1673C700.223 72.1673 700.223 72.1673 700.955 71.4863C701.687 70.8054 701.687 70.8054 701.687 70.8054C701.687 70.8054 701.687 70.8053 701.687 70.8053C701.687 70.8053 701.687 70.8053 701.687 70.8053C701.687 70.8052 701.687 70.8052 701.687 70.8051C701.687 70.8051 701.687 70.805 701.687 70.8048C701.686 70.8042 701.687 70.8051 701.687 70.8044C701.686 70.8044 701.686 70.8043 701.686 70.8042C701.686 70.8041 701.686 70.804 701.686 70.8039C701.685 70.803 701.686 70.8042 701.685 70.8032C701.685 70.8027 701.685 70.8023 701.684 70.8016C701.683 70.8011 701.683 70.8011 701.683 70.8006C701.683 70.8004 701.683 70.8002 701.682 70.8C701.682 70.7998 701.682 70.7996 701.682 70.7994C701.682 70.7992 701.682 70.799 701.681 70.7988C701.681 70.7986 701.681 70.7984 701.681 70.7982C701.68 70.7977 701.68 70.7974 701.679 70.7968C701.669 70.7858 701.684 70.8018 701.673 70.7902C701.667 70.7834 701.676 70.793 701.669 70.7861C701.668 70.7843 701.667 70.7835 701.665 70.7816C701.663 70.7793 701.665 70.7815 701.663 70.7792C701.663 70.7787 701.662 70.7783 701.662 70.7779C701.661 70.7775 701.661 70.777 701.661 70.7766C701.66 70.7761 701.659 70.7744 701.658 70.7739C701.658 70.7735 701.657 70.773 701.657 70.7726C701.656 70.7721 701.656 70.7716 701.656 70.7711C701.605 70.7167 701.684 70.8015 701.631 70.7445C701.631 70.7443 701.499 70.6027 701.461 70.5619C701.363 70.4564 701.314 70.4035 701.178 70.2574C701.129 70.2044 701.141 70.2179 701.089 70.1623C701.087 70.1596 701.081 70.1527 701.078 70.1499C701.076 70.1478 701.074 70.1457 701.072 70.1436C701.07 70.1415 701.068 70.1394 701.066 70.1373C701.04 70.1087 701.069 70.1406 701.043 70.1119C701.023 70.0907 701.014 70.0814 700.994 70.0596C700.992 70.0574 700.99 70.0551 700.988 70.0529C700.986 70.0507 700.984 70.0484 700.982 70.0462C700.979 70.044 700.977 70.0417 700.975 70.0395C700.973 70.0372 700.971 70.035 700.969 70.0327C700.944 70.0057 700.981 70.0461 700.956 70.0191C700.954 70.0168 700.952 70.0145 700.95 70.0122C700.948 70.0099 700.946 70.0076 700.944 70.0053C700.935 69.9958 700.94 70.0011 700.931 69.9915C700.914 69.9738 700.934 69.9952 700.918 69.9775C700.899 69.9578 700.91 69.9691 700.891 69.9492C700.841 69.8948 700.835 69.8882 700.782 69.8313C700.684 69.7259 700.648 69.6881 700.541 69.5725C700.538 69.5697 700.536 69.5668 700.533 69.5639C700.53 69.5611 700.528 69.5582 700.525 69.5553C700.522 69.5525 700.52 69.5496 700.517 69.5467C700.514 69.5438 700.512 69.5409 700.509 69.538C700.506 69.5346 700.496 69.5241 700.493 69.5206C700.49 69.5177 700.487 69.5148 700.485 69.5119C700.482 69.5089 700.479 69.506 700.477 69.5031C700.441 69.4652 700.479 69.5057 700.444 69.4676C700.393 69.4137 700.46 69.4858 700.41 69.4317C700.39 69.41 700.295 69.3076 700.272 69.2833C700.224 69.2317 700.177 69.1814 700.127 69.1273C700.113 69.1121 700.123 69.1226 700.108 69.1073C700.105 69.1039 700.102 69.1006 700.099 69.0972C700.096 69.0938 700.093 69.0905 700.09 69.0871C700.084 69.0809 700.058 69.0528 700.052 69.0464C700.027 69.0201 700.038 69.0318 700.014 69.0053C699.989 68.9786 700.019 69.0113 699.994 68.9846C699.991 68.9811 699.988 68.9776 699.985 68.9741C699.981 68.9707 699.978 68.9672 699.975 68.9637C699.974 68.9627 699.956 68.9437 699.955 68.9427C699.952 68.9392 699.949 68.9357 699.946 68.9322C699.942 68.9286 699.939 68.9251 699.936 68.9216C699.911 68.8944 699.922 68.9064 699.896 68.879C699.893 68.8755 699.89 68.8719 699.886 68.8683C699.883 68.8647 699.88 68.8611 699.876 68.8576C699.873 68.854 699.87 68.8504 699.866 68.8468C699.863 68.8432 699.86 68.8396 699.856 68.836C699.853 68.8329 699.839 68.8174 699.836 68.8143C699.833 68.8106 699.829 68.807 699.826 68.8034C699.823 68.7997 699.819 68.7961 699.816 68.7925C699.815 68.7914 699.776 68.7496 699.775 68.7485C699.771 68.7448 699.768 68.7411 699.765 68.7374C699.761 68.7337 699.758 68.73 699.754 68.7263C699.751 68.7228 699.737 68.7075 699.733 68.704C699.729 68.6988 699.655 68.6195 699.649 68.6136C699.601 68.5619 699.612 68.5737 699.564 68.5213C699.56 68.5175 699.556 68.5136 699.553 68.5097C699.549 68.5058 699.546 68.5019 699.542 68.498C699.538 68.4941 699.535 68.4902 699.531 68.4862C699.527 68.4823 699.524 68.4784 699.52 68.4745C699.498 68.4507 699.498 68.4511 699.476 68.4272C699.472 68.4232 699.469 68.4192 699.465 68.4153C699.461 68.4113 699.458 68.4073 699.454 68.4033C699.447 68.3963 699.438 68.3864 699.432 68.3794C699.428 68.3754 699.424 68.3713 699.42 68.3673C699.417 68.3633 699.413 68.3593 699.409 68.3553C699.406 68.3513 699.402 68.3472 699.398 68.3432C699.394 68.3392 699.391 68.3351 699.387 68.3311C699.336 68.2762 699.347 68.2886 699.296 68.2331C699.292 68.229 699.288 68.2248 699.284 68.2207C699.28 68.2166 699.276 68.2124 699.273 68.2083C699.269 68.2042 699.265 68.2 699.261 68.1959C699.257 68.1917 699.253 68.1876 699.249 68.1834C699.245 68.1784 699.231 68.1633 699.226 68.1584C699.223 68.1545 699.206 68.1371 699.203 68.1332C699.176 68.1046 699.206 68.1366 699.179 68.1079C699.175 68.1029 699.16 68.0876 699.156 68.0826C699.152 68.0783 699.148 68.0741 699.144 68.0698C699.14 68.0656 699.136 68.0613 699.132 68.057C699.073 67.994 699.167 68.0945 699.108 68.0314C699.089 68.0104 699.08 68.001 699.06 67.9798C699.016 67.9319 699.081 68.0018 699.036 67.9538C698.986 67.9 699.062 67.9816 699.012 67.9277C699.008 67.9234 699.004 67.919 699 67.9146C698.995 67.9103 698.991 67.9059 698.987 67.9015C698.972 67.8855 698.978 67.8912 698.963 67.8752C698.943 67.8535 698.934 67.8439 698.914 67.8221C698.909 67.8177 698.905 67.8133 698.901 67.8088C698.897 67.8044 698.893 67.7999 698.889 67.7954C698.855 67.7593 698.897 67.8048 698.864 67.7686C698.86 67.7642 698.855 67.7597 698.851 67.7552C698.847 67.7507 698.843 67.7462 698.839 67.7417C698.835 67.7372 698.83 67.7327 698.826 67.7282C698.822 67.7237 698.818 67.7192 698.814 67.7146C698.761 67.6585 698.815 67.7165 698.763 67.6602C698.759 67.6556 698.754 67.6511 698.75 67.6465C698.746 67.6419 698.742 67.6374 698.737 67.6328C698.733 67.6282 698.729 67.6236 698.725 67.619C698.72 67.6144 698.716 67.6098 698.712 67.6052C698.708 67.6006 698.703 67.596 698.699 67.5914C698.695 67.5868 698.69 67.5822 698.686 67.5776C698.668 67.5582 698.678 67.5693 698.66 67.5498C698.612 67.4975 698.657 67.5464 698.608 67.4939C698.592 67.4769 698.52 67.3984 698.503 67.3807C698.453 67.327 698.5 67.3773 698.45 67.3234C698.448 67.3211 698.425 67.297 698.423 67.2946C698.419 67.2898 698.414 67.285 698.41 67.2801C698.405 67.2753 698.401 67.2705 698.396 67.2656C698.38 67.2478 698.304 67.1671 698.287 67.1486C698.254 67.1127 698.1 66.9473 698.064 66.9089L696.6 68.2708ZM700.955 72.4863H701.502V70.4863H700.955V72.4863ZM702.502 71.5072C702.684 62.754 702.775 55.7052 702.775 50.3633H700.775C700.775 55.6854 700.684 62.7187 700.502 71.4655L702.502 71.5072ZM702.775 50.3633C702.775 39.8223 702.547 27.4381 702.091 13.2121L700.092 13.2762C700.548 27.4877 700.775 39.8496 700.775 50.3633H702.775ZM702.092 13.2219C702.035 10.6623 700.392 8.7393 697.673 7.39205C694.979 6.0568 691.062 5.18827 686.007 4.72872L685.826 6.7205C690.796 7.17241 694.422 8.01286 696.786 9.18412C699.125 10.3434 700.058 11.7244 700.092 13.2664L702.092 13.2219ZM686.9 5.54572C686.81 5.04934 686.743 4.65689 686.7 4.36468C686.678 4.21848 686.663 4.10281 686.654 4.01495C686.649 3.97124 686.646 3.93751 686.644 3.91251C686.643 3.88626 686.643 3.87651 686.643 3.87891H684.643C684.643 4.07695 684.677 4.35727 684.722 4.65778C684.77 4.9808 684.84 5.39728 684.932 5.9035L686.9 5.54572ZM686.643 3.87891C686.643 3.66557 686.699 3.32491 686.865 2.82795L684.967 2.19549C684.768 2.79228 684.643 3.36307 684.643 3.87891H686.643ZM685.879 3.51102C693.225 3.7848 699.732 3.92188 705.398 3.92188V1.92188C699.763 1.92188 693.282 1.78551 685.953 1.51241L685.879 3.51102ZM705.398 3.92188C709.062 3.92188 715.183 3.78466 723.751 3.51121L723.687 1.51223C715.119 1.78566 709.027 1.92188 705.398 1.92188V3.92188ZM722.77 2.82795C722.936 3.32491 722.992 3.66557 722.992 3.87891H724.992C724.992 3.36307 724.866 2.79228 724.667 2.19549L722.77 2.82795ZM722.992 3.87891C722.992 4.53135 722.91 5.02315 722.779 5.38287L724.659 6.06635C724.892 5.42347 724.992 4.6848 724.992 3.87891H722.992ZM723.628 4.72875C718.595 5.18835 714.695 6.05702 712.011 7.39285C709.302 8.74118 707.668 10.6647 707.612 13.2219L709.611 13.2664C709.645 11.722 710.575 10.3415 712.902 9.18332C715.254 8.01264 718.862 7.17233 723.81 6.72047L723.628 4.72875ZM707.612 13.2058C707.065 27.4825 706.791 41.5546 706.791 55.4219H708.791C708.791 41.5809 709.064 27.5344 709.611 13.2825L707.612 13.2058ZM706.791 55.4219C706.791 76.6166 707.019 92.5844 707.476 103.316L709.474 103.231C709.019 92.5432 708.791 76.6099 708.791 55.4219H706.791ZM708.364 102.28L707.134 102.416L707.355 104.404L708.585 104.267L708.364 102.28ZM708.02 102.779L640.071 19.1759L638.519 20.4374L706.468 104.041L708.02 102.779ZM639.295 18.8066H638.611V20.8066H639.295V18.8066ZM637.612 19.7835C637.338 31.5947 637.201 43.5198 637.201 55.5586H639.201C639.201 43.5349 639.338 31.6253 639.611 19.8298L637.612 19.7835ZM637.201 55.5586C637.201 66.1451 637.429 78.5066 637.885 92.6416L639.884 92.5771C639.429 78.457 639.201 66.1179 639.201 55.5586H637.201ZM637.885 92.6313C637.942 95.206 639.569 97.1479 642.281 98.5103C644.966 99.8589 648.868 100.733 653.901 101.193L654.083 99.2014C649.136 98.7496 645.53 97.9038 643.179 96.7231C640.855 95.5562 639.919 94.1599 639.885 92.5874L637.885 92.6313ZM653.033 100.479C653.251 101.222 653.334 101.729 653.334 102.043H655.334C655.334 101.445 655.189 100.722 654.952 99.9151L653.033 100.479ZM653.334 102.043C653.334 102.326 653.264 102.63 653.098 102.963L654.887 103.857C655.176 103.279 655.334 102.671 655.334 102.043H653.334ZM654.03 102.411C646.774 102.137 640.29 102 634.578 102V104C640.259 104 646.718 104.136 653.954 104.409L654.03 102.411ZM634.578 102C630.915 102 624.794 102.137 616.226 102.411L616.29 104.41C624.857 104.136 630.95 104 634.578 104V102ZM617.152 102.963C616.986 102.63 616.916 102.326 616.916 102.043H614.916C614.916 102.671 615.074 103.279 615.363 103.857L617.152 102.963ZM616.916 102.043C616.916 101.35 617.021 100.908 617.152 100.644L615.363 99.75C615.039 100.398 614.916 101.187 614.916 102.043H616.916ZM616.352 101.193C621.429 100.71 625.353 99.8242 628.037 98.4761C630.747 97.1151 632.365 95.1779 632.365 92.6094H630.365C630.365 94.1425 629.466 95.5206 627.14 96.6889C624.788 97.8701 621.158 98.7271 616.163 99.2018L616.352 101.193ZM632.365 92.6478C632.912 78.4166 633.186 64.3673 633.186 50.5H631.186C631.186 64.341 630.912 78.3647 630.366 92.5709L632.365 92.6478ZM633.186 50.5C633.186 35.4535 633.003 22.3854 632.638 11.2972L630.639 11.363C631.003 22.4232 631.186 35.4683 631.186 50.5H633.186ZM632.295 10.5753C628.277 7.08377 623.207 5.14976 617.148 4.72704L617.009 6.72218C622.707 7.11977 627.344 8.92274 630.983 12.0849L632.295 10.5753ZM617.986 5.30555C617.749 4.7919 617.668 4.4149 617.668 4.15234H615.668C615.668 4.80125 615.86 5.47242 616.17 6.14367L617.986 5.30555ZM617.668 4.15234C617.668 3.59238 617.781 3.26011 617.91 3.06642L616.246 1.95702C615.828 2.58364 615.668 3.34512 615.668 4.15234H617.668Z" fill="url(#paint0_linear_87_64)"/>
</g>
<defs>
<filter id="filter0_b_87_64" x="-22.5918" y="-22.7441" width="769.584" height="151.547" filterUnits="userSpaceOnUse" color-interpolation-filters="sRGB">
<feFlood flood-opacity="0" result="BackgroundImageFix"/>
<feGaussianBlur in="BackgroundImageFix" stdDeviation="11.5"/>
<feComposite in2="SourceAlpha" operator="in" result="effect1_backgroundBlur_87_64"/>
<feBlend mode="normal" in="SourceGraphic" in2="effect1_backgroundBlur_87_64" result="shape"/>
</filter>
<linearGradient id="paint0_linear_87_64" x1="348.544" y1="145" x2="348.544" y2="-95.8122" gradientUnits="userSpaceOnUse">
<stop stop-color="#FFBE15" stop-opacity="0.86"/>
<stop offset="1" stop-color="#FEFFFC" stop-opacity="0.14"/>
</linearGradient>
</defs>
</svg>
